<svg width="1823" height="2201" viewBox="0 0 1823 2201" fill="none" xmlns="http://www.w3.org/2000/svg">
<path d="M1823 742C1823 66.0001 148.5 272.5 148.5 541C148.5 368 1765.22 90 1765.22 957C1802.27 898.396 1823 827.812 1823 742Z" fill="#493C36"/>
<path d="M1602.5 1875.5C1602.5 2234.5 -2.47955e-05 2399 0 1817C2.12541e-06 1767.11 13.4539 1724.01 38.0949 1686.5C38.0949 2275.5 1602.5 2115 1602.5 1875.5Z" fill="#493C36"/>
<path d="M441.882 1501.5C493.882 1612 734.882 1852 905.882 1852C1076.88 1852 1317.88 1612 1369.88 1501.5C1480.5 1265 1520.88 574.5 1514.38 377C1507.88 179.5 1084.88 143.5 905.882 143.5C726.882 143.5 303.882 179.5 297.382 377C290.882 574.5 329.705 1263.12 441.882 1501.5Z" fill="#CD844E"/>
<mask id="mask0_376_25" style="mask-type:alpha" maskUnits="userSpaceOnUse" x="296" y="143" width="1220" height="1709">
<path d="M441.882 1501.5C493.882 1612 734.882 1852 905.882 1852C1076.88 1852 1317.88 1612 1369.88 1501.5C1480.5 1265 1520.88 574.5 1514.38 377C1507.88 179.5 1084.88 143.5 905.882 143.5C726.882 143.5 303.882 179.5 297.382 377C290.882 574.5 329.705 1263.12 441.882 1501.5Z" fill="#CD844E"/>
</mask>
<g mask="url(#mask0_376_25)">
<path d="M1765.22 937C1802.27 878.396 1823 807.813 1823 722C1823 1081.77 1690.47 1270.92 1072 1361C639.747 1423.96 172.5 1461.92 38.095 1666.5C13.454 1704.01 0.000124196 1747.11 0.00012207 1797C0.000152695 1078.17 1454.9 1427.91 1765.22 937Z" fill="black" fill-opacity="0.2"/>
</g>
<path fill-rule="evenodd" clip-rule="evenodd" d="M864 680C855.19 704.153 852.379 722.896 850.044 738.468C844.692 774.15 841.838 793.18 775.015 822.5C775.015 822.5 826.766 792.384 821.5 771.5C815.511 747.746 823.678 737.418 831.609 727.39C837.367 720.11 843 712.988 843 701C843 653.624 860.107 622.735 875.326 595.254C887.442 573.375 898.362 553.657 898.5 529.5C898.576 516.204 897.276 505.911 896.025 496.011C895.591 492.572 895.162 489.181 894.799 485.727C893.241 488.352 891.464 490.84 889.5 493C879.686 503.796 871.902 505.369 866.422 506.476C865.557 506.651 864.749 506.814 864 507C854.942 509.249 845 521.5 845 521.5C845 521.5 843.912 494.316 853 481C861.916 467.936 873.634 465.392 885.689 462.774C888.451 462.175 891.231 461.571 893.999 460.836C894.111 458.643 894.275 456.369 894.5 454C895.978 438.437 900.892 423.185 905.19 409.845C909.703 395.838 913.537 383.939 912 376C911.039 371.036 907.59 368.574 904.06 366.054C900.822 363.743 897.516 361.384 896 357C894.676 353.17 894.982 351.337 895.285 349.521C895.592 347.681 895.896 345.86 894.5 342C890.341 330.5 860 302.137 860 302.137C860.04 295.192 859.803 288.479 859.333 282C857.633 258.591 852.874 238.231 847 221C872.448 240.086 892.856 259.437 911.933 282C915.154 285.81 918.337 289.711 921.5 293.718C926.483 300.031 931.417 306.607 936.37 313.5C943.31 323.158 950.29 333.441 957.5 344.5C1052.63 490.404 1036.35 586.351 1011.84 730.824C997.774 813.711 981 912.57 981 1046C955.625 990.636 950.684 890.89 947.73 799.5C947.475 791.625 947.235 783.812 946.998 776.094C944.025 679.256 941.515 597.5 916.144 597.5C911.685 605.828 906.173 612.196 900.083 619.232C889.012 632.022 876.032 647.018 864 680ZM733 774C734.93 777.86 731.944 785 731.944 785C724.22 773.215 717.454 759.702 713.546 746C716.168 753.443 719.988 757.542 723.894 761.733C727.073 765.144 730.308 768.616 733 774ZM721.084 519C720.2 514.271 719.022 510.224 717.5 507C713.074 497.628 710.806 486.1 710.214 473.5C715 475.5 730 514 727.5 519C726.5 521 721.084 519 721.084 519ZM767 771.5C777.696 746.968 784.83 734.443 797.84 716.462C798.437 715.638 799.697 716.123 799.561 717.132C798.922 721.874 797.582 730.087 795.5 734.5C789.844 746.491 789.102 753.364 788.502 758.916C787.777 765.634 787.26 770.419 778.5 780C773.827 785.111 767 771.5 767 771.5Z" fill="#DEB48B"/>
<path d="M748 344.5C759.992 332.508 770.353 327.312 779.457 322.747C787.813 318.556 795.11 314.897 801.637 307C804.382 301.602 807.794 296.156 812.5 290C795.5 308.5 769 314.74 748 344.5Z" fill="#DEB48B"/>
<path d="M788 344.5C809.764 315.875 818.066 304.425 838.5 302.137C838.5 302.137 829.246 297.94 820 302.137C812.347 305.612 803.087 318.762 796.501 329.5C791.47 337.704 788 344.5 788 344.5Z" fill="#DEB48B"/>
<path d="M852.051 297.5C849.551 293 842 298 838.5 302.137C846.793 300.718 851.336 300.837 858.058 301.835C856.243 301.385 853.589 300.268 852.051 297.5Z" fill="#DEB48B"/>
<path d="M791.25 334.474L791.25 334.475C790.251 337.593 789.188 340.914 788 344.5C788 344.5 791.47 337.704 796.501 329.5C796.487 329.491 796.473 329.481 796.459 329.472C794.982 328.489 794.059 327.874 796 321C793.727 326.514 794.036 325.788 791.886 332.49C791.677 333.142 791.465 333.803 791.25 334.474Z" fill="#DEB48B"/>
<path d="M748 344.5C748 344.5 755.96 330.663 767.961 316C758.216 305.389 750.145 297.864 740.9 290.467C750.881 319.513 751.271 330.06 748 344.5Z" fill="#DEB48B"/>
<path d="M1237.5 1281.5C1290.04 1198.88 1326 1052.5 1326 1052.5C1357.5 1188 1323.5 1260.5 1445.5 1292L1440.5 1309.5C1315.46 1370.93 1209 1415 1171.72 1392.5C1192.49 1354.87 1215.16 1316.62 1237.5 1281.5Z" fill="#DEB48B"/>
<path d="M1049.5 1248C1043.62 1289.19 1035.02 1297.21 1009.15 1281.5C1027.35 1300.49 1035.86 1314.31 1039.22 1328.5C1041.97 1340.09 1041.27 1351.92 1039.61 1367C1043.96 1331.62 1047.75 1293.46 1049.5 1248Z" fill="#DEB48B"/>
<path d="M1086 1645C1092.5 1625.5 1084.36 1623 1086 1594C1086.12 1591.83 1086.38 1589.5 1086.75 1587C1070 1594 1035.5 1665.5 1018.5 1665.5C1001.5 1665.5 1012.86 1622.5 1012.86 1622.5C1007.91 1632.78 1001.5 1641.46 1001.5 1655.5C1001.5 1662.78 1001.14 1670.13 1000.48 1677.5C1000.48 1677.5 1001.5 1723.83 1010.5 1723.5C1037.5 1722.5 1075.5 1644 1086 1645Z" fill="#DEB48B"/>
<path d="M1059.5 1233C1050.22 1137.89 1089.15 1137.49 1086.83 1107.17C1086.44 1102.09 1086.07 1096.87 1087.77 1092.06C1101.71 1052.51 1139.2 1032.37 1136 1022C1125.82 989 1202 923 1202 923C1202 923 1142.29 964.022 1103.05 1017.51C1099.03 1022.99 1092 1020.72 1093.74 1014.15C1107.8 961.112 1170.29 865.301 1201.5 828.5C1230.33 794.5 1257.5 740 1257.5 740C1257.5 740 1232.93 782.193 1193.5 826C1162.95 864.349 1143.5 886 1107 954C1076.34 1011.12 1083.79 1053.42 1063.5 1115C1058.32 1130.72 1052.39 1138.7 1049.5 1155C1044.14 1185.24 1059.5 1233 1059.5 1233Z" fill="#DEB48B"/>
<path d="M1419.5 782C1424.9 810.371 1428.38 826.424 1419.79 852.117C1418.67 855.472 1421.91 858.634 1425.09 857.08C1441.77 848.918 1476.38 829.019 1470 807C1466.21 793.913 1424.5 792.5 1419.5 782Z" fill="#DEB48B"/>
<path d="M936.37 313.5C970.049 313.5 1102.92 343.686 1283.23 653.883C1287.86 661.858 1295.49 667.823 1303.99 671.407C1318.26 677.423 1333.03 686.061 1348.5 695.922C1240.5 595.5 1267 565.5 1188.5 497.5C1195.49 501.712 1199.02 502.177 1205 501.5C1176 488 1170 474.5 1142 441.5C1122.49 418.502 1115.05 401.297 1092.5 381.5C1064.39 356.825 1011.5 333.5 1011.5 333.5C1021.5 334.5 1026.5 333.5 1032.5 330.5C1003 331.5 997.518 322.205 977.5 317C954.578 311.04 921.5 293.718 921.5 293.718C926.483 300.031 931.417 306.607 936.37 313.5Z" fill="#DEB48B"/>
<path d="M1306.5 633.5C1321.81 638.552 1346 644 1362 646C1321.63 636.357 1305.45 626.197 1283.5 603C1282.93 605.266 1302.87 631.742 1306.5 633.5Z" fill="#DEB48B"/>
<path d="M1208 485.727C1229.62 496.339 1235.12 496.796 1243 496.011C1237.62 493.228 1232.64 490.379 1228 487.472C1211.86 484.975 1203.41 478.308 1188.5 465C1188.5 465 1202.5 481.142 1208 485.727Z" fill="#DEB48B"/>
<path d="M1114.5 376C1129.6 381.773 1144 378.5 1150.5 376C1134.98 378.745 1129.5 380 1112 374.5L1114.5 376Z" fill="#DEB48B"/>
<path d="M1009.15 1281.5C973.349 1244.14 919.202 1207.03 907.5 1127.5C905.608 1114.64 904.12 1102.31 902.994 1090.5C902.994 1090.5 879.606 1116.12 856.5 1137C791.541 1195.69 665 1137 635 1147.5L652 1221C663.786 1206 762.864 1278.34 1001.81 1303.66C1010.32 1304.57 1018.49 1308 1024.71 1313.88C1032.26 1321.02 1039.22 1328.5 1039.22 1328.5C1035.86 1314.31 1027.35 1300.49 1009.15 1281.5Z" fill="#DEB48B"/>
<path fill-rule="evenodd" clip-rule="evenodd" d="M1011.84 730.824C997.774 813.711 981 912.57 981 1046C955.625 990.636 950.684 890.89 947.73 799.5C947.045 854.247 886.573 918.189 902.994 1090.5C904.12 1102.31 905.608 1114.64 907.5 1127.5C919.202 1207.03 973.349 1244.14 1009.15 1281.5C1035.02 1297.21 1043.62 1289.19 1049.5 1248C1047.75 1293.46 1043.96 1331.62 1039.61 1367C1030.33 1442.52 1018.5 1505.36 1018.5 1599.5C1018.5 1608.95 1015.97 1616.04 1012.86 1622.5C1012.86 1622.5 1001.5 1665.5 1018.5 1665.5C1035.5 1665.5 1070 1594 1086.75 1587C1092.56 1548.46 1127.9 1471.87 1171.72 1392.5C1192.49 1354.87 1215.16 1316.62 1237.5 1281.5C1290.04 1198.88 1326 1052.5 1326 1052.5C1357.5 1188 1323.5 1260.5 1445.5 1292L1517.5 781C1470.71 772.181 1430.05 748.961 1393.5 725.392C1377.79 715.261 1362.84 705.066 1348.5 695.922C1333.03 686.061 1318.26 677.423 1303.99 671.407C1295.49 667.823 1287.86 661.858 1283.23 653.883C1102.92 343.686 970.049 313.5 936.37 313.5C943.31 323.158 950.29 333.441 957.5 344.5C1052.63 490.404 1036.35 586.351 1011.84 730.824ZM1087.77 1092.06C1086.07 1096.87 1086.44 1102.09 1086.83 1107.17C1089.15 1137.49 1050.22 1137.89 1059.5 1233C1059.5 1233 1044.14 1185.24 1049.5 1155C1052.39 1138.7 1058.32 1130.72 1063.5 1115C1083.79 1053.42 1076.34 1011.12 1107 954C1143.5 886 1162.95 864.349 1193.5 826C1232.93 782.193 1257.5 740 1257.5 740C1257.5 740 1230.33 794.5 1201.5 828.5C1170.29 865.301 1107.8 961.112 1093.74 1014.15C1092 1020.72 1099.03 1022.99 1103.05 1017.51C1142.29 964.022 1202 923 1202 923C1202 923 1125.82 989 1136 1022C1139.2 1032.37 1101.71 1052.51 1087.77 1092.06ZM1425.09 857.08C1421.91 858.634 1418.67 855.472 1419.79 852.117C1428.38 826.424 1424.9 810.371 1419.5 782C1424.5 792.5 1466.21 793.913 1470 807C1476.38 829.019 1441.77 848.918 1425.09 857.08Z" fill="#DEB48B"/>
<path fill-rule="evenodd" clip-rule="evenodd" d="M845 521.5C845 521.5 843.912 494.316 853 481C861.916 467.936 873.634 465.392 885.689 462.774C888.451 462.175 891.231 461.571 893.999 460.836C894.111 458.643 894.275 456.369 894.5 454C895.978 438.437 900.892 423.185 905.19 409.845C909.703 395.838 913.537 383.939 912 376C911.039 371.036 907.59 368.574 904.06 366.054C900.822 363.743 897.516 361.384 896 357C894.676 353.17 894.982 351.337 895.285 349.521C895.592 347.681 895.896 345.86 894.5 342C890.341 330.5 860 302.137 860 302.137C860 302.137 859.193 302.117 858.058 301.835C851.336 300.837 846.793 300.718 838.5 302.137C818.066 304.425 809.764 315.875 788 344.5C789.188 340.914 790.251 337.593 791.25 334.475L791.25 334.474C791.465 333.803 791.677 333.142 791.886 332.49C794.036 325.788 793.727 326.514 796 321C796.867 318.897 799.992 310.331 801.004 308.266C801.211 307.844 801.422 307.422 801.637 307C795.11 314.897 787.813 318.556 779.457 322.747C770.353 327.312 759.992 332.508 748 344.5C745.64 347.101 743.258 350.301 740.9 354C723.996 380.513 708.294 432.645 710.214 473.5C715 475.5 730 514 727.5 519C726.5 521 721.084 519 721.084 519C729.774 565.517 710 678.022 710 722.5C710 730.202 711.302 738.132 713.546 746C716.168 753.443 719.988 757.542 723.894 761.733C727.073 765.144 730.308 768.616 733 774C734.93 777.86 731.944 785 731.944 785C747.679 809.009 767.391 825.845 775.015 822.5C775.015 822.5 826.766 792.384 821.5 771.5C815.511 747.746 823.678 737.418 831.609 727.39C837.367 720.11 843 712.988 843 701C843 653.624 860.107 622.735 875.326 595.254C887.442 573.375 898.362 553.657 898.5 529.5C898.576 516.204 897.276 505.911 896.025 496.011C895.591 492.572 895.162 489.181 894.799 485.727C893.241 488.352 891.464 490.84 889.5 493C879.686 503.796 871.902 505.369 866.422 506.476C865.557 506.651 864.749 506.814 864 507C854.942 509.249 845 521.5 845 521.5ZM767 771.5C777.696 746.968 784.83 734.443 797.84 716.462C798.437 715.638 799.697 716.123 799.561 717.132C798.922 721.874 797.582 730.087 795.5 734.5C789.844 746.491 789.102 753.364 788.502 758.916C787.777 765.634 787.26 770.419 778.5 780C773.827 785.111 767 771.5 767 771.5Z" fill="#DEB48B"/>
<path d="M975.992 296.654C971.815 295.871 967.976 293.753 964.647 291.112C945.204 275.685 920.256 279.339 911.933 282C915.154 285.81 918.337 289.711 921.5 293.718C921.5 293.718 954.578 311.04 977.5 317C997.518 322.205 1003 331.5 1032.5 330.5C1026.5 333.5 1021.5 334.5 1011.5 333.5C1011.5 333.5 1064.39 356.825 1092.5 381.5C1115.05 401.297 1122.49 418.502 1142 441.5C1170 474.5 1176 488 1205 501.5C1199.02 502.177 1195.49 501.712 1188.5 497.5C1267 565.5 1240.5 595.5 1348.5 695.922C1362.84 705.066 1377.79 715.261 1393.5 725.392C1341.5 684.5 1344.49 687.657 1306.5 633.5C1302.87 631.742 1282.93 605.266 1283.5 603C1305.45 626.197 1321.63 636.357 1362 646C1288.5 614.5 1277.94 544.034 1208 485.727C1202.5 481.142 1188.5 465 1188.5 465C1203.41 478.308 1211.86 484.975 1228 487.472C1173.26 453.202 1165.66 411.029 1114.5 376L1112 374.5C1129.5 380 1134.98 378.745 1150.5 376C1131.42 375.255 1119.66 373.526 1103.76 369.003C1097.6 367.25 1092.76 362.442 1089.28 357.067C1079.31 341.69 1050.57 310.643 975.992 296.654Z" fill="#DEB48B"/>
<path d="M838.5 302.137C842 298 849.551 293 852.051 297.5C853.589 300.268 856.243 301.385 858.058 301.835C858.685 301.928 859.331 302.029 860 302.137C860.04 295.192 859.803 288.479 859.333 282C858.364 284.026 855.413 284.341 852.051 284.701C848.775 285.051 845.107 285.443 842.5 287.5C842.5 287.5 832.929 280.644 816 282C798.564 283.397 780.91 300.179 767.961 316C755.96 330.663 748 344.5 748 344.5C769 314.74 795.5 308.5 812.5 290C807.794 296.156 804.382 301.602 801.637 307C801.422 307.422 801.211 307.844 801.004 308.266C799.992 310.331 796.867 318.897 796 321C794.059 327.874 794.982 328.489 796.459 329.472L796.501 329.5C803.087 318.762 812.347 305.612 820 302.137C829.246 297.94 838.5 302.137 838.5 302.137Z" fill="#DEB48B"/>
<path d="M740.9 354C743.258 350.301 745.64 347.101 748 344.5C751.271 330.06 750.881 319.513 740.9 290.467C734.547 285.384 727.64 280.362 719.256 274.441C718.443 273.867 717.384 274.709 717.753 275.633C731.698 310.613 737.831 329.346 740.9 354Z" fill="#DEB48B"/>
<path d="M952.5 1864.5C966.5 1868 1002.04 1860.09 1008 1838C1036.96 1730.64 1063.3 1702.33 1081 1658.56C1082.75 1654.22 1084.42 1649.73 1086 1645C1075.5 1644 1037.5 1722.5 1010.5 1723.5C1001.5 1723.83 1000.48 1677.5 1000.48 1677.5C992.434 1767.84 939.556 1861.26 952.5 1864.5Z" fill="#DEB48B"/>
<mask id="mask1_376_25" style="mask-type:alpha" maskUnits="userSpaceOnUse" x="635" y="221" width="883" height="1645">
<path fill-rule="evenodd" clip-rule="evenodd" d="M864 680C855.19 704.153 852.379 722.896 850.044 738.468C844.692 774.15 841.838 793.18 775.015 822.5C775.015 822.5 826.766 792.384 821.5 771.5C815.511 747.746 823.678 737.418 831.609 727.39C837.367 720.11 843 712.988 843 701C843 653.624 860.107 622.735 875.326 595.254C887.442 573.375 898.362 553.657 898.5 529.5C898.576 516.204 897.276 505.911 896.025 496.011C895.591 492.572 895.162 489.181 894.799 485.727C893.241 488.352 891.464 490.84 889.5 493C879.686 503.796 871.902 505.369 866.422 506.476C865.557 506.651 864.749 506.814 864 507C854.942 509.249 845 521.5 845 521.5C845 521.5 843.912 494.316 853 481C861.916 467.936 873.634 465.392 885.689 462.774C888.451 462.175 891.231 461.571 893.999 460.836C894.111 458.643 894.275 456.369 894.5 454C895.978 438.437 900.892 423.185 905.19 409.845C909.703 395.838 913.537 383.939 912 376C911.039 371.036 907.59 368.574 904.06 366.054C900.822 363.743 897.516 361.384 896 357C894.676 353.17 894.982 351.337 895.285 349.521C895.592 347.681 895.896 345.86 894.5 342C890.341 330.5 860 302.137 860 302.137C860.04 295.192 859.803 288.479 859.333 282C857.633 258.591 852.874 238.231 847 221C872.448 240.086 892.856 259.437 911.933 282C915.154 285.81 918.337 289.711 921.5 293.718C926.483 300.031 931.417 306.607 936.37 313.5C943.31 323.158 950.29 333.441 957.5 344.5C1052.63 490.404 1036.35 586.351 1011.84 730.824C997.774 813.711 981 912.57 981 1046C955.625 990.636 950.684 890.89 947.73 799.5C947.475 791.625 947.235 783.812 946.998 776.094C944.025 679.256 941.515 597.5 916.144 597.5C911.685 605.828 906.173 612.196 900.083 619.232C889.012 632.022 876.032 647.018 864 680ZM733 774C734.93 777.86 731.944 785 731.944 785C724.22 773.215 717.454 759.702 713.546 746C716.168 753.443 719.988 757.542 723.894 761.733C727.073 765.144 730.308 768.616 733 774ZM721.084 519C720.2 514.271 719.022 510.224 717.5 507C713.074 497.628 710.806 486.1 710.214 473.5C715 475.5 730 514 727.5 519C726.5 521 721.084 519 721.084 519ZM767 771.5C777.696 746.968 784.83 734.443 797.84 716.462C798.437 715.638 799.697 716.123 799.561 717.132C798.922 721.874 797.582 730.087 795.5 734.5C789.844 746.491 789.102 753.364 788.502 758.916C787.777 765.634 787.26 770.419 778.5 780C773.827 785.111 767 771.5 767 771.5Z" fill="#DEB48B"/>
<path d="M748 344.5C759.992 332.508 770.353 327.312 779.457 322.747C787.813 318.556 795.11 314.897 801.637 307C804.382 301.602 807.794 296.156 812.5 290C795.5 308.5 769 314.74 748 344.5Z" fill="#DEB48B"/>
<path d="M788 344.5C809.764 315.875 818.066 304.425 838.5 302.137C838.5 302.137 829.246 297.94 820 302.137C812.347 305.612 803.087 318.762 796.501 329.5C791.47 337.704 788 344.5 788 344.5Z" fill="#DEB48B"/>
<path d="M852.051 297.5C849.551 293 842 298 838.5 302.137C846.793 300.718 851.336 300.837 858.058 301.835C856.243 301.385 853.589 300.268 852.051 297.5Z" fill="#DEB48B"/>
<path d="M791.25 334.474L791.25 334.475C790.251 337.593 789.188 340.914 788 344.5C788 344.5 791.47 337.704 796.501 329.5C796.487 329.491 796.473 329.481 796.459 329.472C794.982 328.489 794.059 327.874 796 321C793.727 326.514 794.036 325.788 791.886 332.49C791.677 333.142 791.465 333.803 791.25 334.474Z" fill="#DEB48B"/>
<path d="M748 344.5C748 344.5 755.96 330.663 767.961 316C758.216 305.389 750.145 297.864 740.9 290.467C750.881 319.513 751.271 330.06 748 344.5Z" fill="#DEB48B"/>
<path d="M1237.5 1281.5C1290.04 1198.88 1326 1052.5 1326 1052.5C1357.5 1188 1323.5 1260.5 1445.5 1292L1440.5 1309.5C1315.46 1370.93 1209 1415 1171.72 1392.5C1192.49 1354.87 1215.16 1316.62 1237.5 1281.5Z" fill="#DEB48B"/>
<path d="M1049.5 1248C1043.62 1289.19 1035.02 1297.21 1009.15 1281.5C1027.35 1300.49 1035.86 1314.31 1039.22 1328.5C1041.97 1340.09 1041.27 1351.92 1039.61 1367C1043.96 1331.62 1047.75 1293.46 1049.5 1248Z" fill="#DEB48B"/>
<path d="M1086 1645C1092.5 1625.5 1084.36 1623 1086 1594C1086.12 1591.83 1086.38 1589.5 1086.75 1587C1070 1594 1035.5 1665.5 1018.5 1665.5C1001.5 1665.5 1012.86 1622.5 1012.86 1622.5C1007.91 1632.78 1001.5 1641.46 1001.5 1655.5C1001.5 1662.78 1001.14 1670.13 1000.48 1677.5C1000.48 1677.5 1001.5 1723.83 1010.5 1723.5C1037.5 1722.5 1075.5 1644 1086 1645Z" fill="#DEB48B"/>
<path d="M1059.5 1233C1050.22 1137.89 1089.15 1137.49 1086.83 1107.17C1086.44 1102.09 1086.07 1096.87 1087.77 1092.06C1101.71 1052.51 1139.2 1032.37 1136 1022C1125.82 989 1202 923 1202 923C1202 923 1142.29 964.022 1103.05 1017.51C1099.03 1022.99 1092 1020.72 1093.74 1014.15C1107.8 961.112 1170.29 865.301 1201.5 828.5C1230.33 794.5 1257.5 740 1257.5 740C1257.5 740 1232.93 782.193 1193.5 826C1162.95 864.349 1143.5 886 1107 954C1076.34 1011.12 1083.79 1053.42 1063.5 1115C1058.32 1130.72 1052.39 1138.7 1049.5 1155C1044.14 1185.24 1059.5 1233 1059.5 1233Z" fill="#DEB48B"/>
<path d="M1419.5 782C1424.9 810.371 1428.38 826.424 1419.79 852.117C1418.67 855.472 1421.91 858.634 1425.09 857.08C1441.77 848.918 1476.38 829.019 1470 807C1466.21 793.913 1424.5 792.5 1419.5 782Z" fill="#DEB48B"/>
<path d="M936.37 313.5C970.049 313.5 1102.92 343.686 1283.23 653.883C1287.86 661.858 1295.49 667.823 1303.99 671.407C1318.26 677.423 1333.03 686.061 1348.5 695.922C1240.5 595.5 1267 565.5 1188.5 497.5C1195.49 501.712 1199.02 502.177 1205 501.5C1176 488 1170 474.5 1142 441.5C1122.49 418.502 1115.05 401.297 1092.5 381.5C1064.39 356.825 1011.5 333.5 1011.5 333.5C1021.5 334.5 1026.5 333.5 1032.5 330.5C1003 331.5 997.518 322.205 977.5 317C954.578 311.04 921.5 293.718 921.5 293.718C926.483 300.031 931.417 306.607 936.37 313.5Z" fill="#DEB48B"/>
<path d="M1306.5 633.5C1321.81 638.552 1346 644 1362 646C1321.63 636.357 1305.45 626.197 1283.5 603C1282.93 605.266 1302.87 631.742 1306.5 633.5Z" fill="#DEB48B"/>
<path d="M1208 485.727C1229.62 496.339 1235.12 496.796 1243 496.011C1237.62 493.228 1232.64 490.379 1228 487.472C1211.86 484.975 1203.41 478.308 1188.5 465C1188.5 465 1202.5 481.142 1208 485.727Z" fill="#DEB48B"/>
<path d="M1114.5 376C1129.6 381.773 1144 378.5 1150.5 376C1134.98 378.745 1129.5 380 1112 374.5L1114.5 376Z" fill="#DEB48B"/>
<path d="M1009.15 1281.5C973.349 1244.14 919.202 1207.03 907.5 1127.5C905.608 1114.64 904.12 1102.31 902.994 1090.5C902.994 1090.5 879.606 1116.12 856.5 1137C791.541 1195.69 665 1137 635 1147.5L652 1221C663.786 1206 762.864 1278.34 1001.81 1303.66C1010.32 1304.57 1018.49 1308 1024.71 1313.88C1032.26 1321.02 1039.22 1328.5 1039.22 1328.5C1035.86 1314.31 1027.35 1300.49 1009.15 1281.5Z" fill="#DEB48B"/>
<path fill-rule="evenodd" clip-rule="evenodd" d="M1011.84 730.824C997.774 813.711 981 912.57 981 1046C955.625 990.636 950.684 890.89 947.73 799.5C947.045 854.247 886.573 918.189 902.994 1090.5C904.12 1102.31 905.608 1114.64 907.5 1127.5C919.202 1207.03 973.349 1244.14 1009.15 1281.5C1035.02 1297.21 1043.62 1289.19 1049.5 1248C1047.75 1293.46 1043.96 1331.62 1039.61 1367C1030.33 1442.52 1018.5 1505.36 1018.5 1599.5C1018.5 1608.95 1015.97 1616.04 1012.86 1622.5C1012.86 1622.5 1001.5 1665.5 1018.5 1665.5C1035.5 1665.5 1070 1594 1086.75 1587C1092.56 1548.46 1127.9 1471.87 1171.72 1392.5C1192.49 1354.87 1215.16 1316.62 1237.5 1281.5C1290.04 1198.88 1326 1052.5 1326 1052.5C1357.5 1188 1323.5 1260.5 1445.5 1292L1517.5 781C1470.71 772.181 1430.05 748.961 1393.5 725.392C1377.79 715.261 1362.84 705.066 1348.5 695.922C1333.03 686.061 1318.26 677.423 1303.99 671.407C1295.49 667.823 1287.86 661.858 1283.23 653.883C1102.92 343.686 970.049 313.5 936.37 313.5C943.31 323.158 950.29 333.441 957.5 344.5C1052.63 490.404 1036.35 586.351 1011.84 730.824ZM1087.77 1092.06C1086.07 1096.87 1086.44 1102.09 1086.83 1107.17C1089.15 1137.49 1050.22 1137.89 1059.5 1233C1059.5 1233 1044.14 1185.24 1049.5 1155C1052.39 1138.7 1058.32 1130.72 1063.5 1115C1083.79 1053.42 1076.34 1011.12 1107 954C1143.5 886 1162.95 864.349 1193.5 826C1232.93 782.193 1257.5 740 1257.5 740C1257.5 740 1230.33 794.5 1201.5 828.5C1170.29 865.301 1107.8 961.112 1093.74 1014.15C1092 1020.72 1099.03 1022.99 1103.05 1017.51C1142.29 964.022 1202 923 1202 923C1202 923 1125.82 989 1136 1022C1139.2 1032.37 1101.71 1052.51 1087.77 1092.06ZM1425.09 857.08C1421.91 858.634 1418.67 855.472 1419.79 852.117C1428.38 826.424 1424.9 810.371 1419.5 782C1424.5 792.5 1466.21 793.913 1470 807C1476.38 829.019 1441.77 848.918 1425.09 857.08Z" fill="#DEB48B"/>
<path fill-rule="evenodd" clip-rule="evenodd" d="M845 521.5C845 521.5 843.912 494.316 853 481C861.916 467.936 873.634 465.392 885.689 462.774C888.451 462.175 891.231 461.571 893.999 460.836C894.111 458.643 894.275 456.369 894.5 454C895.978 438.437 900.892 423.185 905.19 409.845C909.703 395.838 913.537 383.939 912 376C911.039 371.036 907.59 368.574 904.06 366.054C900.822 363.743 897.516 361.384 896 357C894.676 353.17 894.982 351.337 895.285 349.521C895.592 347.681 895.896 345.86 894.5 342C890.341 330.5 860 302.137 860 302.137C860 302.137 859.193 302.117 858.058 301.835C851.336 300.837 846.793 300.718 838.5 302.137C818.066 304.425 809.764 315.875 788 344.5C789.188 340.914 790.251 337.593 791.25 334.475L791.25 334.474C791.465 333.803 791.677 333.142 791.886 332.49C794.036 325.788 793.727 326.514 796 321C796.867 318.897 799.992 310.331 801.004 308.266C801.211 307.844 801.422 307.422 801.637 307C795.11 314.897 787.813 318.556 779.457 322.747C770.353 327.312 759.992 332.508 748 344.5C745.64 347.101 743.258 350.301 740.9 354C723.996 380.513 708.294 432.645 710.214 473.5C715 475.5 730 514 727.5 519C726.5 521 721.084 519 721.084 519C729.774 565.517 710 678.022 710 722.5C710 730.202 711.302 738.132 713.546 746C716.168 753.443 719.988 757.542 723.894 761.733C727.073 765.144 730.308 768.616 733 774C734.93 777.86 731.944 785 731.944 785C747.679 809.009 767.391 825.845 775.015 822.5C775.015 822.5 826.766 792.384 821.5 771.5C815.511 747.746 823.678 737.418 831.609 727.39C837.367 720.11 843 712.988 843 701C843 653.624 860.107 622.735 875.326 595.254C887.442 573.375 898.362 553.657 898.5 529.5C898.576 516.204 897.276 505.911 896.025 496.011C895.591 492.572 895.162 489.181 894.799 485.727C893.241 488.352 891.464 490.84 889.5 493C879.686 503.796 871.902 505.369 866.422 506.476C865.557 506.651 864.749 506.814 864 507C854.942 509.249 845 521.5 845 521.5ZM767 771.5C777.696 746.968 784.83 734.443 797.84 716.462C798.437 715.638 799.697 716.123 799.561 717.132C798.922 721.874 797.582 730.087 795.5 734.5C789.844 746.491 789.102 753.364 788.502 758.916C787.777 765.634 787.26 770.419 778.5 780C773.827 785.111 767 771.5 767 771.5Z" fill="#DEB48B"/>
<path d="M975.992 296.654C971.815 295.871 967.976 293.753 964.647 291.112C945.204 275.685 920.256 279.339 911.933 282C915.154 285.81 918.337 289.711 921.5 293.718C921.5 293.718 954.578 311.04 977.5 317C997.518 322.205 1003 331.5 1032.5 330.5C1026.5 333.5 1021.5 334.5 1011.5 333.5C1011.5 333.5 1064.39 356.825 1092.5 381.5C1115.05 401.297 1122.49 418.502 1142 441.5C1170 474.5 1176 488 1205 501.5C1199.02 502.177 1195.49 501.712 1188.5 497.5C1267 565.5 1240.5 595.5 1348.5 695.922C1362.84 705.066 1377.79 715.261 1393.5 725.392C1341.5 684.5 1344.49 687.657 1306.5 633.5C1302.87 631.742 1282.93 605.266 1283.5 603C1305.45 626.197 1321.63 636.357 1362 646C1288.5 614.5 1277.94 544.034 1208 485.727C1202.5 481.142 1188.5 465 1188.5 465C1203.41 478.308 1211.86 484.975 1228 487.472C1173.26 453.202 1165.66 411.029 1114.5 376L1112 374.5C1129.5 380 1134.98 378.745 1150.5 376C1131.42 375.255 1119.66 373.526 1103.76 369.003C1097.6 367.25 1092.76 362.442 1089.28 357.067C1079.31 341.69 1050.57 310.643 975.992 296.654Z" fill="#DEB48B"/>
<path d="M838.5 302.137C842 298 849.551 293 852.051 297.5C853.589 300.268 856.243 301.385 858.058 301.835C858.685 301.928 859.331 302.029 860 302.137C860.04 295.192 859.803 288.479 859.333 282C858.364 284.026 855.413 284.341 852.051 284.701C848.775 285.051 845.107 285.443 842.5 287.5C842.5 287.5 832.929 280.644 816 282C798.564 283.397 780.91 300.179 767.961 316C755.96 330.663 748 344.5 748 344.5C769 314.74 795.5 308.5 812.5 290C807.794 296.156 804.382 301.602 801.637 307C801.422 307.422 801.211 307.844 801.004 308.266C799.992 310.331 796.867 318.897 796 321C794.059 327.874 794.982 328.489 796.459 329.472L796.501 329.5C803.087 318.762 812.347 305.612 820 302.137C829.246 297.94 838.5 302.137 838.5 302.137Z" fill="#DEB48B"/>
<path d="M740.9 354C743.258 350.301 745.64 347.101 748 344.5C751.271 330.06 750.881 319.513 740.9 290.467C734.547 285.384 727.64 280.362 719.256 274.441C718.443 273.867 717.384 274.709 717.753 275.633C731.698 310.613 737.831 329.346 740.9 354Z" fill="#DEB48B"/>
<path d="M952.5 1864.5C966.5 1868 1002.04 1860.09 1008 1838C1036.96 1730.64 1063.3 1702.33 1081 1658.56C1082.75 1654.22 1084.42 1649.73 1086 1645C1075.5 1644 1037.5 1722.5 1010.5 1723.5C1001.5 1723.83 1000.48 1677.5 1000.48 1677.5C992.434 1767.84 939.556 1861.26 952.5 1864.5Z" fill="#DEB48B"/>
</mask>
<g mask="url(#mask1_376_25)">
<path d="M1765.22 937C1802.27 878.396 1823 807.813 1823 722C1823 1081.77 1690.47 1270.92 1072 1361C639.747 1423.96 172.5 1461.92 38.095 1666.5C13.454 1704.01 0.000124196 1747.11 0.00012207 1797C0.000152695 1078.17 1454.9 1427.91 1765.22 937Z" fill="black" fill-opacity="0.2"/>
</g>
<path fill-rule="evenodd" clip-rule="evenodd" d="M864 680C855.19 704.153 852.379 722.896 850.044 738.468C844.692 774.15 841.838 793.18 775.015 822.5C775.015 822.5 826.766 792.384 821.5 771.5C815.511 747.746 823.678 737.418 831.609 727.39C837.367 720.11 843 712.988 843 701C843 653.624 860.107 622.735 875.326 595.254C887.442 573.375 898.362 553.657 898.5 529.5C898.576 516.204 897.276 505.911 896.025 496.011C895.591 492.572 895.162 489.181 894.799 485.727C893.241 488.352 891.464 490.84 889.5 493C879.686 503.796 871.902 505.369 866.422 506.476C865.557 506.651 864.749 506.814 864 507C854.942 509.249 845 521.5 845 521.5C845 521.5 843.912 494.316 853 481C861.916 467.936 873.634 465.392 885.689 462.774C888.451 462.175 891.231 461.571 893.999 460.836C894.111 458.643 894.275 456.369 894.5 454C895.978 438.437 900.892 423.185 905.19 409.845C909.703 395.838 913.537 383.939 912 376C911.039 371.036 907.59 368.574 904.06 366.054C900.822 363.743 897.516 361.384 896 357C894.676 353.17 894.982 351.337 895.285 349.521C895.592 347.681 895.896 345.86 894.5 342C890.341 330.5 860 302.137 860 302.137C860.04 295.192 859.803 288.479 859.333 282C857.633 258.591 852.874 238.231 847 221C872.448 240.086 892.856 259.437 911.933 282C915.154 285.81 918.337 289.711 921.5 293.718C926.483 300.031 931.417 306.607 936.37 313.5C943.31 323.158 950.29 333.441 957.5 344.5C1052.63 490.404 1036.35 586.351 1011.84 730.824C997.774 813.711 981 912.57 981 1046C970.473 1023.03 963.462 992.422 958.652 957.94C958.469 956.632 958.29 955.319 958.114 954C951.738 906.281 949.412 851.536 947.73 799.5C947.475 791.625 947.235 783.812 946.998 776.094C944.025 679.256 941.515 597.5 916.144 597.5C911.685 605.828 906.173 612.196 900.083 619.232C889.012 632.022 876.032 647.018 864 680ZM733 774C734.93 777.86 731.944 785 731.944 785C724.22 773.215 717.454 759.702 713.546 746C716.168 753.443 719.988 757.542 723.894 761.733C727.073 765.144 730.308 768.616 733 774ZM721.084 519C720.2 514.271 719.022 510.224 717.5 507C713.074 497.628 710.806 486.1 710.214 473.5C715 475.5 730 514 727.5 519C726.5 521 721.084 519 721.084 519ZM767 771.5C777.696 746.968 784.83 734.443 797.84 716.462C798.437 715.638 799.697 716.123 799.561 717.132C798.922 721.874 797.582 730.087 795.5 734.5C789.844 746.491 789.102 753.364 788.502 758.916C787.777 765.634 787.26 770.419 778.5 780C773.827 785.111 767 771.5 767 771.5Z" fill="#ECC3A5"/>
<path d="M748 344.5C759.992 332.508 770.353 327.312 779.457 322.747C787.813 318.556 795.11 314.897 801.637 307C804.382 301.602 807.794 296.156 812.5 290C795.5 308.5 769 314.74 748 344.5Z" fill="#ECC3A5"/>
<path d="M788 344.5C809.764 315.875 818.066 304.425 838.5 302.137C838.5 302.137 829.246 297.94 820 302.137C812.347 305.612 803.087 318.762 796.501 329.5C791.47 337.704 788 344.5 788 344.5Z" fill="#ECC3A5"/>
<path d="M852.051 297.5C849.551 293 842 298 838.5 302.137C846.793 300.718 851.336 300.837 858.058 301.835C856.243 301.385 853.589 300.268 852.051 297.5Z" fill="#ECC3A5"/>
<path d="M791.25 334.474L791.25 334.475C790.251 337.593 789.188 340.914 788 344.5C788 344.5 791.47 337.704 796.501 329.5C796.487 329.491 796.473 329.481 796.459 329.472C794.982 328.489 794.059 327.874 796 321C793.727 326.514 794.036 325.788 791.886 332.49C791.677 333.142 791.465 333.803 791.25 334.474Z" fill="#ECC3A5"/>
<path d="M748 344.5C748 344.5 755.96 330.663 767.961 316C758.216 305.389 750.145 297.864 740.9 290.467C750.881 319.513 751.271 330.06 748 344.5Z" fill="#ECC3A5"/>
<path d="M1237.5 1281.5C1290.04 1198.88 1326 1052.5 1326 1052.5C1357.5 1188 1323.5 1260.5 1445.5 1292L1440.5 1309.5C1315.46 1370.93 1209 1415 1171.72 1392.5C1192.49 1354.87 1215.16 1316.62 1237.5 1281.5Z" fill="#ECC3A5"/>
<path d="M1049.5 1248C1043.62 1289.19 1035.02 1297.21 1009.15 1281.5C1027.35 1300.49 1035.86 1314.31 1039.22 1328.5C1041.97 1340.09 1041.27 1351.92 1039.61 1367C1041.68 1350.09 1043.64 1332.55 1045.3 1313.88C1047.11 1293.48 1048.58 1271.74 1049.5 1248Z" fill="#ECC3A5"/>
<path d="M1086 1645C1092.5 1625.5 1084.36 1623 1086 1594C1086.12 1591.83 1086.38 1589.5 1086.75 1587C1073.92 1592.36 1050.67 1635.57 1032.85 1655.5C1027.41 1661.59 1022.48 1665.5 1018.5 1665.5C1001.5 1665.5 1012.86 1622.5 1012.86 1622.5C1007.91 1632.78 1001.5 1641.46 1001.5 1655.5C1001.5 1662.78 1001.14 1670.13 1000.48 1677.5C1000.48 1677.5 1001.5 1723.83 1010.5 1723.5C1026.84 1722.89 1047.2 1693.92 1063.06 1671.34C1073.42 1656.61 1081.85 1644.61 1086 1645Z" fill="#ECC3A5"/>
<path d="M1059.5 1233C1050.22 1137.89 1089.15 1137.49 1086.83 1107.17C1086.44 1102.09 1086.07 1096.87 1087.77 1092.06C1101.71 1052.51 1139.2 1032.37 1136 1022C1125.82 989 1202 923 1202 923C1202 923 1142.29 964.022 1103.05 1017.51C1099.03 1022.99 1092 1020.72 1093.74 1014.15C1107.8 961.112 1170.29 865.301 1201.5 828.5C1230.33 794.5 1257.5 740 1257.5 740C1257.5 740 1232.93 782.193 1193.5 826C1162.95 864.349 1143.5 886 1107 954C1076.34 1011.12 1083.79 1053.42 1063.5 1115C1058.32 1130.72 1052.39 1138.7 1049.5 1155C1044.14 1185.24 1059.5 1233 1059.5 1233Z" fill="#ECC3A5"/>
<path d="M1419.5 782C1424.9 810.371 1428.38 826.424 1419.79 852.117C1418.67 855.472 1421.91 858.634 1425.09 857.08C1441.77 848.918 1476.38 829.019 1470 807C1466.21 793.913 1424.5 792.5 1419.5 782Z" fill="#ECC3A5"/>
<path d="M936.37 313.5C970.049 313.5 1102.92 343.686 1283.23 653.883C1287.86 661.858 1295.49 667.823 1303.99 671.407C1318.26 677.423 1333.03 686.061 1348.5 695.922C1240.5 595.5 1267 565.5 1188.5 497.5C1195.49 501.712 1199.02 502.177 1205 501.5C1176 488 1170 474.5 1142 441.5C1122.49 418.502 1115.05 401.297 1092.5 381.5C1064.39 356.825 1011.5 333.5 1011.5 333.5C1021.5 334.5 1026.5 333.5 1032.5 330.5C1003 331.5 997.518 322.205 977.5 317C954.578 311.04 921.5 293.718 921.5 293.718C926.483 300.031 931.417 306.607 936.37 313.5Z" fill="#ECC3A5"/>
<path d="M1306.5 633.5C1321.81 638.552 1346 644 1362 646C1321.63 636.357 1305.45 626.197 1283.5 603C1282.93 605.266 1302.87 631.742 1306.5 633.5Z" fill="#ECC3A5"/>
<path d="M1208 485.727C1229.62 496.339 1235.12 496.796 1243 496.011C1237.62 493.228 1232.64 490.379 1228 487.472C1211.86 484.975 1203.41 478.308 1188.5 465C1188.5 465 1202.5 481.142 1208 485.727Z" fill="#ECC3A5"/>
<path d="M1114.5 376C1129.6 381.773 1144 378.5 1150.5 376C1134.98 378.745 1129.5 380 1112 374.5L1114.5 376Z" fill="#ECC3A5"/>
<path d="M975.992 296.654C971.815 295.871 967.976 293.753 964.647 291.112C945.204 275.685 920.256 279.339 911.933 282C915.154 285.81 918.337 289.711 921.5 293.718C921.5 293.718 954.578 311.04 977.5 317C997.518 322.205 1003 331.5 1032.5 330.5C1026.5 333.5 1021.5 334.5 1011.5 333.5C1011.5 333.5 1064.39 356.825 1092.5 381.5C1115.05 401.297 1122.49 418.502 1142 441.5C1170 474.5 1176 488 1205 501.5C1199.02 502.177 1195.49 501.712 1188.5 497.5C1267 565.5 1240.5 595.5 1348.5 695.922C1362.84 705.066 1377.79 715.261 1393.5 725.392C1341.5 684.5 1344.49 687.657 1306.5 633.5C1302.87 631.742 1282.93 605.266 1283.5 603C1305.45 626.197 1321.63 636.357 1362 646C1288.5 614.5 1277.94 544.034 1208 485.727C1202.5 481.142 1188.5 465 1188.5 465C1203.41 478.308 1211.86 484.975 1228 487.472C1173.26 453.202 1165.66 411.029 1114.5 376L1112 374.5C1129.5 380 1134.98 378.745 1150.5 376C1131.42 375.255 1119.66 373.526 1103.76 369.003C1097.6 367.25 1092.76 362.442 1089.28 357.067C1079.31 341.69 1050.57 310.643 975.992 296.654Z" fill="#ECC3A5"/>
<path d="M838.5 302.137C842 298 849.551 293 852.051 297.5C853.589 300.268 856.243 301.385 858.058 301.835C858.685 301.928 859.331 302.029 860 302.137C860.04 295.192 859.803 288.479 859.333 282C858.364 284.026 855.413 284.341 852.051 284.701C848.775 285.051 845.107 285.443 842.5 287.5C842.5 287.5 832.929 280.644 816 282C798.564 283.397 780.91 300.179 767.961 316C755.96 330.663 748 344.5 748 344.5C769 314.74 795.5 308.5 812.5 290C807.794 296.156 804.382 301.602 801.637 307C801.422 307.422 801.211 307.844 801.004 308.266C799.992 310.331 796.867 318.897 796 321C794.059 327.874 794.982 328.489 796.459 329.472L796.501 329.5C803.087 318.762 812.347 305.612 820 302.137C829.246 297.94 838.5 302.137 838.5 302.137Z" fill="#ECC3A5"/>
<path fill-rule="evenodd" clip-rule="evenodd" d="M775.015 822.5C775.015 822.5 826.766 792.384 821.5 771.5C815.511 747.746 823.678 737.418 831.609 727.39C837.367 720.11 843 712.988 843 701C843 701 822.313 743.957 810.5 738.468C802.102 734.566 788.502 706 757.5 719C712.077 738.047 710 722.5 710 722.5C710 730.202 711.302 738.132 713.546 746C716.168 753.443 719.988 757.542 723.894 761.733C727.073 765.144 730.308 768.616 733 774C734.93 777.86 731.944 785 731.944 785C747.679 809.009 767.391 825.845 775.015 822.5ZM767 771.5C777.696 746.968 784.83 734.443 797.84 716.462C798.437 715.638 799.697 716.123 799.561 717.132C798.922 721.874 797.582 730.087 795.5 734.5C789.844 746.491 789.102 753.364 788.502 758.916C787.777 765.634 787.26 770.419 778.5 780C773.827 785.111 767 771.5 767 771.5Z" fill="#ECC3A5"/>
<path d="M1087.77 1092.06C1086.07 1096.87 1086.44 1102.09 1086.83 1107.17C1089.15 1137.49 1050.22 1137.89 1059.5 1233C1053.75 1232.64 1051.26 1234.9 1049.5 1248C1048.58 1271.74 1047.11 1293.48 1045.3 1313.88C1045.3 1313.88 1122.35 1317.61 1171.72 1320C1104.12 1238.14 1127.84 1135.47 1202 923C1202 923 1125.82 989 1136 1022C1139.2 1032.37 1101.71 1052.51 1087.77 1092.06Z" fill="#ECC3A5"/>
<path d="M1039.61 1367C1030.33 1442.52 1018.5 1505.36 1018.5 1599.5C1018.5 1599.5 1018.01 1607.5 1022.5 1607.5C1043.5 1607.5 1009.15 1342.5 1171.72 1320C1122.35 1317.61 1045.3 1313.88 1045.3 1313.88C1043.64 1332.55 1041.68 1350.09 1039.61 1367Z" fill="#ECC3A5"/>
<path d="M947.73 799.5C947.045 854.247 886.573 918.189 902.994 1090.5C904.12 1102.31 905.608 1114.64 907.5 1127.5C918.426 1201.76 966.36 1239.04 1001.81 1274.07C937.029 1206.38 915.438 1151.29 958.652 957.94C958.469 956.632 958.29 955.319 958.114 954C951.738 906.281 949.412 851.536 947.73 799.5Z" fill="#ECC3A5"/>
<mask id="mask2_376_25" style="mask-type:alpha" maskUnits="userSpaceOnUse" x="710" y="221" width="761" height="1503">
<path fill-rule="evenodd" clip-rule="evenodd" d="M864 680C855.19 704.153 852.379 722.896 850.044 738.468C844.692 774.15 841.838 793.18 775.015 822.5C775.015 822.5 826.766 792.384 821.5 771.5C815.511 747.746 823.678 737.418 831.609 727.39C837.367 720.11 843 712.988 843 701C843 653.624 860.107 622.735 875.326 595.254C887.442 573.375 898.362 553.657 898.5 529.5C898.576 516.204 897.276 505.911 896.025 496.011C895.591 492.572 895.162 489.181 894.799 485.727C893.241 488.352 891.464 490.84 889.5 493C879.686 503.796 871.902 505.369 866.422 506.476C865.557 506.651 864.749 506.814 864 507C854.942 509.249 845 521.5 845 521.5C845 521.5 843.912 494.316 853 481C861.916 467.936 873.634 465.392 885.689 462.774C888.451 462.175 891.231 461.571 893.999 460.836C894.111 458.643 894.275 456.369 894.5 454C895.978 438.437 900.892 423.185 905.19 409.845C909.703 395.838 913.537 383.939 912 376C911.039 371.036 907.59 368.574 904.06 366.054C900.822 363.743 897.516 361.384 896 357C894.676 353.17 894.982 351.337 895.285 349.521C895.592 347.681 895.896 345.86 894.5 342C890.341 330.5 860 302.137 860 302.137C860.04 295.192 859.803 288.479 859.333 282C857.633 258.591 852.874 238.231 847 221C872.448 240.086 892.856 259.437 911.933 282C915.154 285.81 918.337 289.711 921.5 293.718C926.483 300.031 931.417 306.607 936.37 313.5C943.31 323.158 950.29 333.441 957.5 344.5C1052.63 490.404 1036.35 586.351 1011.84 730.824C997.774 813.711 981 912.57 981 1046C970.473 1023.03 963.462 992.422 958.652 957.94C958.469 956.632 958.29 955.319 958.114 954C951.738 906.281 949.412 851.536 947.73 799.5C947.475 791.625 947.235 783.812 946.998 776.094C944.025 679.256 941.515 597.5 916.144 597.5C911.685 605.828 906.173 612.196 900.083 619.232C889.012 632.022 876.032 647.018 864 680ZM733 774C734.93 777.86 731.944 785 731.944 785C724.22 773.215 717.454 759.702 713.546 746C716.168 753.443 719.988 757.542 723.894 761.733C727.073 765.144 730.308 768.616 733 774ZM721.084 519C720.2 514.271 719.022 510.224 717.5 507C713.074 497.628 710.806 486.1 710.214 473.5C715 475.5 730 514 727.5 519C726.5 521 721.084 519 721.084 519ZM767 771.5C777.696 746.968 784.83 734.443 797.84 716.462C798.437 715.638 799.697 716.123 799.561 717.132C798.922 721.874 797.582 730.087 795.5 734.5C789.844 746.491 789.102 753.364 788.502 758.916C787.777 765.634 787.26 770.419 778.5 780C773.827 785.111 767 771.5 767 771.5Z" fill="#ECC3A5"/>
<path d="M748 344.5C759.992 332.508 770.353 327.312 779.457 322.747C787.813 318.556 795.11 314.897 801.637 307C804.382 301.602 807.794 296.156 812.5 290C795.5 308.5 769 314.74 748 344.5Z" fill="#ECC3A5"/>
<path d="M788 344.5C809.764 315.875 818.066 304.425 838.5 302.137C838.5 302.137 829.246 297.94 820 302.137C812.347 305.612 803.087 318.762 796.501 329.5C791.47 337.704 788 344.5 788 344.5Z" fill="#ECC3A5"/>
<path d="M852.051 297.5C849.551 293 842 298 838.5 302.137C846.793 300.718 851.336 300.837 858.058 301.835C856.243 301.385 853.589 300.268 852.051 297.5Z" fill="#ECC3A5"/>
<path d="M791.25 334.474L791.25 334.475C790.251 337.593 789.188 340.914 788 344.5C788 344.5 791.47 337.704 796.501 329.5C796.487 329.491 796.473 329.481 796.459 329.472C794.982 328.489 794.059 327.874 796 321C793.727 326.514 794.036 325.788 791.886 332.49C791.677 333.142 791.465 333.803 791.25 334.474Z" fill="#ECC3A5"/>
<path d="M748 344.5C748 344.5 755.96 330.663 767.961 316C758.216 305.389 750.145 297.864 740.9 290.467C750.881 319.513 751.271 330.06 748 344.5Z" fill="#ECC3A5"/>
<path d="M1237.5 1281.5C1290.04 1198.88 1326 1052.5 1326 1052.5C1357.5 1188 1323.5 1260.5 1445.5 1292L1440.5 1309.5C1315.46 1370.93 1209 1415 1171.72 1392.5C1192.49 1354.87 1215.16 1316.62 1237.5 1281.5Z" fill="#ECC3A5"/>
<path d="M1049.5 1248C1043.62 1289.19 1035.02 1297.21 1009.15 1281.5C1027.35 1300.49 1035.86 1314.31 1039.22 1328.5C1041.97 1340.09 1041.27 1351.92 1039.61 1367C1041.68 1350.09 1043.64 1332.55 1045.3 1313.88C1047.11 1293.48 1048.58 1271.74 1049.5 1248Z" fill="#ECC3A5"/>
<path d="M1086 1645C1092.5 1625.5 1084.36 1623 1086 1594C1086.12 1591.83 1086.38 1589.5 1086.75 1587C1073.92 1592.36 1050.67 1635.57 1032.85 1655.5C1027.41 1661.59 1022.48 1665.5 1018.5 1665.5C1001.5 1665.5 1012.86 1622.5 1012.86 1622.5C1007.91 1632.78 1001.5 1641.46 1001.5 1655.5C1001.5 1662.78 1001.14 1670.13 1000.48 1677.5C1000.48 1677.5 1001.5 1723.83 1010.5 1723.5C1026.84 1722.89 1047.2 1693.92 1063.06 1671.34C1073.42 1656.61 1081.85 1644.61 1086 1645Z" fill="#ECC3A5"/>
<path d="M1059.5 1233C1050.22 1137.89 1089.15 1137.49 1086.83 1107.17C1086.44 1102.09 1086.07 1096.87 1087.77 1092.06C1101.71 1052.51 1139.2 1032.37 1136 1022C1125.82 989 1202 923 1202 923C1202 923 1142.29 964.022 1103.05 1017.51C1099.03 1022.99 1092 1020.72 1093.74 1014.15C1107.8 961.112 1170.29 865.301 1201.5 828.5C1230.33 794.5 1257.5 740 1257.5 740C1257.5 740 1232.93 782.193 1193.5 826C1162.95 864.349 1143.5 886 1107 954C1076.34 1011.12 1083.79 1053.42 1063.5 1115C1058.32 1130.72 1052.39 1138.7 1049.5 1155C1044.14 1185.24 1059.5 1233 1059.5 1233Z" fill="#ECC3A5"/>
<path d="M1419.5 782C1424.9 810.371 1428.38 826.424 1419.79 852.117C1418.67 855.472 1421.91 858.634 1425.09 857.08C1441.77 848.918 1476.38 829.019 1470 807C1466.21 793.913 1424.5 792.5 1419.5 782Z" fill="#ECC3A5"/>
<path d="M936.37 313.5C970.049 313.5 1102.92 343.686 1283.23 653.883C1287.86 661.858 1295.49 667.823 1303.99 671.407C1318.26 677.423 1333.03 686.061 1348.5 695.922C1240.5 595.5 1267 565.5 1188.5 497.5C1195.49 501.712 1199.02 502.177 1205 501.5C1176 488 1170 474.5 1142 441.5C1122.49 418.502 1115.05 401.297 1092.5 381.5C1064.39 356.825 1011.5 333.5 1011.5 333.5C1021.5 334.5 1026.5 333.5 1032.5 330.5C1003 331.5 997.518 322.205 977.5 317C954.578 311.04 921.5 293.718 921.5 293.718C926.483 300.031 931.417 306.607 936.37 313.5Z" fill="#ECC3A5"/>
<path d="M1306.5 633.5C1321.81 638.552 1346 644 1362 646C1321.63 636.357 1305.45 626.197 1283.5 603C1282.93 605.266 1302.87 631.742 1306.5 633.5Z" fill="#ECC3A5"/>
<path d="M1208 485.727C1229.62 496.339 1235.12 496.796 1243 496.011C1237.62 493.228 1232.64 490.379 1228 487.472C1211.86 484.975 1203.41 478.308 1188.5 465C1188.5 465 1202.5 481.142 1208 485.727Z" fill="#ECC3A5"/>
<path d="M1114.5 376C1129.6 381.773 1144 378.5 1150.5 376C1134.98 378.745 1129.5 380 1112 374.5L1114.5 376Z" fill="#ECC3A5"/>
<path d="M975.992 296.654C971.815 295.871 967.976 293.753 964.647 291.112C945.204 275.685 920.256 279.339 911.933 282C915.154 285.81 918.337 289.711 921.5 293.718C921.5 293.718 954.578 311.04 977.5 317C997.518 322.205 1003 331.5 1032.5 330.5C1026.5 333.5 1021.5 334.5 1011.5 333.5C1011.5 333.5 1064.39 356.825 1092.5 381.5C1115.05 401.297 1122.49 418.502 1142 441.5C1170 474.5 1176 488 1205 501.5C1199.02 502.177 1195.49 501.712 1188.5 497.5C1267 565.5 1240.5 595.5 1348.5 695.922C1362.84 705.066 1377.79 715.261 1393.5 725.392C1341.5 684.5 1344.49 687.657 1306.5 633.5C1302.87 631.742 1282.93 605.266 1283.5 603C1305.45 626.197 1321.63 636.357 1362 646C1288.5 614.5 1277.94 544.034 1208 485.727C1202.5 481.142 1188.5 465 1188.5 465C1203.41 478.308 1211.86 484.975 1228 487.472C1173.26 453.202 1165.66 411.029 1114.5 376L1112 374.5C1129.5 380 1134.98 378.745 1150.5 376C1131.42 375.255 1119.66 373.526 1103.76 369.003C1097.6 367.25 1092.76 362.442 1089.28 357.067C1079.31 341.69 1050.57 310.643 975.992 296.654Z" fill="#ECC3A5"/>
<path d="M838.5 302.137C842 298 849.551 293 852.051 297.5C853.589 300.268 856.243 301.385 858.058 301.835C858.685 301.928 859.331 302.029 860 302.137C860.04 295.192 859.803 288.479 859.333 282C858.364 284.026 855.413 284.341 852.051 284.701C848.775 285.051 845.107 285.443 842.5 287.5C842.5 287.5 832.929 280.644 816 282C798.564 283.397 780.91 300.179 767.961 316C755.96 330.663 748 344.5 748 344.5C769 314.74 795.5 308.5 812.5 290C807.794 296.156 804.382 301.602 801.637 307C801.422 307.422 801.211 307.844 801.004 308.266C799.992 310.331 796.867 318.897 796 321C794.059 327.874 794.982 328.489 796.459 329.472L796.501 329.5C803.087 318.762 812.347 305.612 820 302.137C829.246 297.94 838.5 302.137 838.5 302.137Z" fill="#ECC3A5"/>
<path fill-rule="evenodd" clip-rule="evenodd" d="M775.015 822.5C775.015 822.5 826.766 792.384 821.5 771.5C815.511 747.746 823.678 737.418 831.609 727.39C837.367 720.11 843 712.988 843 701C843 701 822.313 743.957 810.5 738.468C802.102 734.566 788.502 706 757.5 719C712.077 738.047 710 722.5 710 722.5C710 730.202 711.302 738.132 713.546 746C716.168 753.443 719.988 757.542 723.894 761.733C727.073 765.144 730.308 768.616 733 774C734.93 777.86 731.944 785 731.944 785C747.679 809.009 767.391 825.845 775.015 822.5ZM767 771.5C777.696 746.968 784.83 734.443 797.84 716.462C798.437 715.638 799.697 716.123 799.561 717.132C798.922 721.874 797.582 730.087 795.5 734.5C789.844 746.491 789.102 753.364 788.502 758.916C787.777 765.634 787.26 770.419 778.5 780C773.827 785.111 767 771.5 767 771.5Z" fill="#ECC3A5"/>
<path d="M1087.77 1092.06C1086.07 1096.87 1086.44 1102.09 1086.83 1107.17C1089.15 1137.49 1050.22 1137.89 1059.5 1233C1053.75 1232.64 1051.26 1234.9 1049.5 1248C1048.58 1271.74 1047.11 1293.48 1045.3 1313.88C1045.3 1313.88 1122.35 1317.61 1171.72 1320C1104.12 1238.14 1127.84 1135.47 1202 923C1202 923 1125.82 989 1136 1022C1139.2 1032.37 1101.71 1052.51 1087.77 1092.06Z" fill="#ECC3A5"/>
<path d="M1039.61 1367C1030.33 1442.52 1018.5 1505.36 1018.5 1599.5C1018.5 1599.5 1018.01 1607.5 1022.5 1607.5C1043.5 1607.5 1009.15 1342.5 1171.72 1320C1122.35 1317.61 1045.3 1313.88 1045.3 1313.88C1043.64 1332.55 1041.68 1350.09 1039.61 1367Z" fill="#ECC3A5"/>
<path d="M947.73 799.5C947.045 854.247 886.573 918.189 902.994 1090.5C904.12 1102.31 905.608 1114.64 907.5 1127.5C918.426 1201.76 966.36 1239.04 1001.81 1274.07C937.029 1206.38 915.438 1151.29 958.652 957.94C958.469 956.632 958.29 955.319 958.114 954C951.738 906.281 949.412 851.536 947.73 799.5Z" fill="#ECC3A5"/>
</mask>
<g mask="url(#mask2_376_25)">
<path d="M1765.22 937C1802.27 878.396 1823 807.813 1823 722C1823 1081.77 1690.47 1270.92 1072 1361C639.747 1423.96 172.5 1461.92 38.095 1666.5C13.454 1704.01 0.000124196 1747.11 0.00012207 1797C0.000152695 1078.17 1454.9 1427.91 1765.22 937Z" fill="black" fill-opacity="0.2"/>
</g>
<path fill-rule="evenodd" clip-rule="evenodd" d="M864 680C855.19 704.153 852.379 722.896 850.044 738.468C844.692 774.15 841.838 793.18 775.015 822.5C775.015 822.5 826.766 792.384 821.5 771.5C815.511 747.746 823.678 737.418 831.609 727.39C837.367 720.11 843 712.988 843 701C843 653.624 860.107 622.735 875.326 595.254C887.442 573.375 898.362 553.657 898.5 529.5C898.576 516.204 897.276 505.911 896.025 496.011C895.591 492.572 895.162 489.181 894.8 485.727C893.241 488.352 891.464 490.84 889.5 493C879.686 503.796 871.902 505.369 866.422 506.476C865.557 506.651 864.75 506.814 864 507C854.942 509.249 845 521.5 845 521.5C845 521.5 843.912 494.316 853 481C861.916 467.936 873.634 465.392 885.689 462.774C888.451 462.175 891.231 461.571 893.999 460.836C894.111 458.643 894.275 456.369 894.5 454C895.978 438.437 900.892 423.185 905.19 409.845C909.703 395.838 913.537 383.939 912 376C911.039 371.036 907.59 368.574 904.06 366.054C900.822 363.743 897.516 361.384 896 357C894.676 353.17 894.982 351.337 895.286 349.521C895.593 347.681 895.896 345.86 894.5 342C890.341 330.5 860 302.137 860 302.137C860.04 295.192 859.803 288.479 859.333 282C857.633 258.591 852.874 238.231 847 221C872.449 240.086 892.856 259.437 911.933 282C915.154 285.81 918.337 289.711 921.5 293.718C926.483 300.031 931.417 306.607 936.37 313.5C943.31 323.158 950.29 333.441 957.5 344.5C1052.63 490.404 1036.35 586.351 1011.84 730.824C997.774 813.711 981 912.57 981 1046C955.625 990.636 950.684 890.89 947.73 799.5C947.475 791.625 947.235 783.812 946.998 776.094C944.025 679.256 941.515 597.5 916.144 597.5C911.686 605.828 906.173 612.196 900.083 619.232C889.012 632.022 876.032 647.018 864 680ZM733 774C734.93 777.86 731.944 785 731.944 785C724.22 773.215 717.454 759.702 713.546 746C716.168 753.443 719.988 757.542 723.894 761.733C727.073 765.144 730.308 768.616 733 774ZM721.084 519C720.2 514.271 719.022 510.224 717.5 507C713.074 497.628 710.806 486.1 710.214 473.5C715 475.5 730 514 727.5 519C726.5 521 721.084 519 721.084 519ZM767 771.5C777.697 746.968 784.83 734.443 797.84 716.462C798.437 715.638 799.697 716.123 799.561 717.132C798.922 721.874 797.582 730.087 795.5 734.5C789.844 746.491 789.102 753.364 788.502 758.916C787.777 765.634 787.26 770.419 778.5 780C773.827 785.111 767 771.5 767 771.5Z" fill="#705041"/>
<path d="M748.001 344.5C759.992 332.508 770.353 327.312 779.457 322.747C787.813 318.556 795.11 314.897 801.637 307C804.382 301.602 807.794 296.156 812.5 290C795.5 308.5 769 314.74 748.001 344.5Z" fill="#705041"/>
<path d="M788 344.5C809.764 315.875 818.066 304.425 838.5 302.137C838.5 302.137 829.246 297.94 820 302.137C812.347 305.612 809.086 306.762 802.5 317.5C797.469 325.704 788 344.5 788 344.5Z" fill="#705041"/>
<path d="M852.051 297.5C849.551 293 842 298 838.5 302.137C846.794 300.718 851.336 300.837 858.058 301.835C856.243 301.385 853.589 300.268 852.051 297.5Z" fill="#705041"/>
<path d="M791.25 334.474C790.252 337.591 789.188 340.913 788 344.5C788 344.5 797.469 325.704 802.5 317.5C801.287 319.5 794.04 327.939 796 321C793.727 326.514 794.036 325.788 791.886 332.49C791.677 333.142 791.465 333.803 791.25 334.474Z" fill="#705041"/>
<path d="M748.001 344.5C748.001 344.5 754.499 330.663 766.5 316C756.756 305.389 751.745 300.897 742.5 293.5C752.481 322.545 751.271 330.06 748.001 344.5Z" fill="#705041"/>
<path d="M1237.5 1281.5C1290.04 1198.88 1326 1052.5 1326 1052.5C1357.5 1188 1323.5 1260.5 1445.5 1292L1440.5 1309.5C1315.46 1370.93 1209 1415 1171.72 1392.5C1192.49 1354.87 1215.16 1316.62 1237.5 1281.5Z" fill="#705041"/>
<path d="M1049.5 1248C1043.62 1289.19 1035.02 1297.21 1009.15 1281.5C1027.35 1300.49 1035.86 1314.31 1039.22 1328.5C1041.97 1340.09 1041.27 1351.92 1039.61 1367C1043.96 1331.62 1047.75 1293.46 1049.5 1248Z" fill="#705041"/>
<path d="M1086 1645C1092.5 1625.5 1084.36 1623 1086 1594C1086.12 1591.83 1086.38 1589.5 1086.75 1587C1070 1594 1035.5 1665.5 1018.5 1665.5C1001.5 1665.5 1012.86 1622.5 1012.86 1622.5C1007.91 1632.78 1001.5 1641.46 1001.5 1655.5C1001.5 1662.78 1001.14 1670.13 1000.49 1677.5C1000.49 1677.5 1001.5 1723.83 1010.5 1723.5C1037.5 1722.5 1075.5 1644 1086 1645Z" fill="#705041"/>
<path d="M1059.5 1233C1050.22 1137.89 1089.15 1137.49 1086.83 1107.17C1086.44 1102.09 1086.07 1096.87 1087.77 1092.06C1101.71 1052.51 1139.2 1032.37 1136 1022C1125.82 989 1202 923 1202 923C1202 923 1142.29 964.022 1103.05 1017.51C1099.03 1022.99 1092 1020.72 1093.74 1014.15C1107.8 961.112 1170.29 865.301 1201.5 828.5C1230.33 794.5 1257.5 740 1257.5 740C1257.5 740 1232.93 782.193 1193.5 826C1162.95 864.349 1143.5 886 1107 954C1076.34 1011.12 1083.79 1053.42 1063.5 1115C1058.32 1130.72 1052.39 1138.7 1049.5 1155C1044.15 1185.24 1059.5 1233 1059.5 1233Z" fill="#705041"/>
<path d="M1419.5 782C1424.9 810.371 1428.38 826.424 1419.8 852.117C1418.67 855.472 1421.91 858.634 1425.09 857.08C1441.77 848.918 1476.38 829.019 1470 807C1466.21 793.913 1424.5 792.5 1419.5 782Z" fill="#705041"/>
<path d="M936.37 313.5C970.049 313.5 1102.92 343.686 1283.23 653.883C1287.86 661.858 1295.49 667.823 1303.99 671.407C1318.26 677.423 1333.03 686.061 1348.5 695.922C1240.5 595.5 1267 565.5 1188.5 497.5C1195.49 501.712 1199.02 502.177 1205 501.5C1176 488 1170 474.5 1142 441.5C1122.49 418.502 1115.05 401.297 1092.5 381.5C1064.39 356.825 1011.5 333.5 1011.5 333.5C1021.5 334.5 1026.5 333.5 1032.5 330.5C1003 331.5 997.518 322.205 977.5 317C954.578 311.04 921.5 293.718 921.5 293.718C926.483 300.031 931.417 306.607 936.37 313.5Z" fill="#705041"/>
<path d="M1306.5 633.5C1321.81 638.552 1346 644 1362 646C1321.63 636.357 1305.45 626.197 1283.5 603C1282.93 605.266 1302.87 631.742 1306.5 633.5Z" fill="#705041"/>
<path d="M1208 485.727C1229.62 496.339 1235.12 496.796 1243 496.011C1237.62 493.228 1232.64 490.379 1228 487.472C1211.86 484.975 1203.41 478.308 1188.5 465C1188.5 465 1202.5 481.142 1208 485.727Z" fill="#705041"/>
<path d="M1009.15 1281.5C973.349 1244.14 919.202 1207.03 907.5 1127.5C890.5 1320.5 676 1155 646.565 1197.5L652 1221C663.786 1206 762.864 1278.34 1001.81 1303.66C1010.32 1304.57 1018.49 1308 1024.71 1313.88C1032.26 1321.02 1039.22 1328.5 1039.22 1328.5C1035.86 1314.31 1027.35 1300.49 1009.15 1281.5Z" fill="#705041"/>
<path d="M927.515 534C927.515 566.658 923.118 584.476 916.144 597.5M748.001 344.5C759.992 332.508 770.353 327.312 779.457 322.747C787.813 318.556 795.11 314.897 801.637 307M748.001 344.5C769 314.74 795.5 308.5 812.5 290M748.001 344.5C748.001 344.5 754.499 330.663 766.5 316C756.756 305.389 751.745 300.897 742.5 293.5C752.481 322.545 751.272 330.06 748.001 344.5ZM916.144 597.5C911.686 605.828 906.173 612.196 900.083 619.232C889.012 632.022 876.032 647.018 864 680C855.19 704.153 852.379 722.896 850.044 738.468C844.692 774.15 841.838 793.18 775.015 822.5C775.015 822.5 826.766 792.384 821.5 771.5C815.511 747.746 823.678 737.418 831.609 727.39C837.367 720.11 843 712.988 843 701C843 653.624 860.107 622.735 875.326 595.254C887.442 573.375 898.362 553.657 898.5 529.5C898.576 516.204 897.276 505.911 896.025 496.011C895.591 492.572 895.162 489.181 894.8 485.727M916.144 597.5C941.515 597.5 944.025 679.256 946.998 776.094C947.235 783.812 947.475 791.625 947.73 799.5C950.684 890.89 955.625 990.636 981 1046C981 912.57 997.774 813.711 1011.84 730.824C1036.35 586.351 1052.63 490.404 957.5 344.5C950.29 333.441 943.31 323.158 936.37 313.5M788 344.5C809.764 315.875 818.066 304.425 838.5 302.137M788 344.5C789.188 340.913 790.252 337.591 791.25 334.474C791.465 333.803 791.677 333.142 791.886 332.49C794.036 325.788 793.727 326.514 796 321M788 344.5C788 344.5 797.469 325.704 802.5 317.5M838.5 302.137C842 298 849.551 293 852.051 297.5C853.589 300.268 856.243 301.385 858.058 301.835M838.5 302.137C838.5 302.137 829.246 297.94 820 302.137C812.347 305.612 809.086 306.762 802.5 317.5M838.5 302.137C846.794 300.718 851.336 300.837 858.058 301.835M860 302.137C860.181 270.102 854.5 243 847 221M860 302.137C860 302.137 890.341 330.5 894.5 342C895.896 345.86 895.593 347.681 895.286 349.521C894.982 351.337 894.676 353.17 896 357C897.516 361.384 900.822 363.743 904.06 366.054C907.59 368.574 911.039 371.036 912 376C913.537 383.939 909.703 395.838 905.19 409.845C900.892 423.185 895.978 438.437 894.5 454C894.275 456.369 894.111 458.643 893.999 460.836M860 302.137C860.04 295.192 859.803 288.479 859.333 282C857.633 258.591 852.874 238.231 847 221M860 302.137C860 302.137 859.193 302.117 858.058 301.835M860 302.137C859.331 302.029 858.685 301.928 858.058 301.835M847 221C872.449 240.086 892.856 259.437 911.933 282C915.154 285.81 918.337 289.711 921.5 293.718M801.637 307C804.382 301.602 807.794 296.156 812.5 290M801.637 307C801.422 307.422 801.211 307.844 801.005 308.266M812.5 290C807.426 296.638 803.857 302.449 801.005 308.266M893.999 460.836C891.231 461.571 888.451 462.175 885.689 462.774C873.634 465.392 861.916 467.936 853 481C843.912 494.316 845 521.5 845 521.5C845 521.5 854.942 509.249 864 507C864.75 506.814 865.557 506.651 866.422 506.476C871.902 505.369 879.686 503.796 889.5 493C891.464 490.84 893.241 488.352 894.8 485.727M893.999 460.836C893.521 470.213 894.001 478.12 894.8 485.727M893.999 460.836C895.505 460.436 897.007 459.998 898.5 459.5C904.705 457.432 902.262 473.156 894.8 485.727M801.005 308.266C799.992 310.331 796.867 318.897 796 321M802.5 317.5C801.287 319.5 794.04 327.939 796 321M936.37 313.5C970.049 313.5 1102.92 343.686 1283.23 653.883C1287.86 661.858 1295.49 667.823 1303.99 671.407C1318.26 677.423 1333.03 686.061 1348.5 695.922M936.37 313.5C931.417 306.607 926.483 300.031 921.5 293.718M1009.15 1281.5C973.349 1244.14 919.202 1207.03 907.5 1127.5C890.5 1320.5 676 1155 646.565 1197.5L652 1221C663.786 1206 762.864 1278.34 1001.81 1303.66C1010.32 1304.57 1018.49 1308 1024.71 1313.88C1032.26 1321.02 1039.22 1328.5 1039.22 1328.5M1009.15 1281.5C1035.02 1297.21 1043.62 1289.19 1049.5 1248C1047.75 1293.46 1043.96 1331.62 1039.61 1367C1041.27 1351.92 1041.97 1340.09 1039.22 1328.5M1009.15 1281.5C1027.35 1300.49 1035.86 1314.31 1039.22 1328.5M1393.5 725.392C1377.79 715.261 1362.84 705.066 1348.5 695.922M921.5 293.718C921.5 293.718 954.578 311.04 977.5 317C997.518 322.205 1003 331.5 1032.5 330.5C1026.5 333.5 1021.5 334.5 1011.5 333.5C1011.5 333.5 1064.39 356.825 1092.5 381.5C1115.05 401.297 1122.49 418.502 1142 441.5C1170 474.5 1176 488 1205 501.5C1199.02 502.177 1195.49 501.712 1188.5 497.5C1267 565.5 1240.5 595.5 1348.5 695.922M717.5 507C713.074 497.628 710.806 486.1 710.214 473.5C715 475.5 730 514 727.5 519C726.5 521 721.084 519 721.084 519C720.2 514.271 719.022 510.224 717.5 507ZM767 771.5C777.697 746.968 784.83 734.443 797.84 716.462C798.437 715.638 799.697 716.123 799.561 717.132C798.922 721.874 797.582 730.087 795.5 734.5C789.844 746.491 789.102 753.364 788.502 758.916C787.777 765.634 787.26 770.419 778.5 780C773.827 785.111 767 771.5 767 771.5ZM713.546 746C717.454 759.702 724.22 773.215 731.944 785C731.944 785 734.93 777.86 733 774C730.308 768.616 727.073 765.144 723.894 761.733C719.988 757.542 716.168 753.443 713.546 746ZM1001.5 1655.5C1001.5 1641.46 1007.91 1632.78 1012.86 1622.5C1012.86 1622.5 1001.5 1665.5 1018.5 1665.5C1035.5 1665.5 1070 1594 1086.75 1587C1086.38 1589.5 1086.12 1591.83 1086 1594C1084.36 1623 1092.5 1625.5 1086 1645C1075.5 1644 1037.5 1722.5 1010.5 1723.5C1001.5 1723.83 1000.49 1677.5 1000.49 1677.5C1001.14 1670.13 1001.5 1662.78 1001.5 1655.5ZM1237.5 1281.5C1290.04 1198.88 1326 1052.5 1326 1052.5C1357.5 1188 1323.5 1260.5 1445.5 1292L1440.5 1309.5C1315.46 1370.93 1209 1415 1171.72 1392.5C1192.49 1354.87 1215.16 1316.62 1237.5 1281.5ZM1059.5 1233C1050.22 1137.89 1089.15 1137.49 1086.83 1107.17C1086.44 1102.09 1086.07 1096.87 1087.77 1092.06C1101.71 1052.51 1139.2 1032.37 1136 1022C1125.82 989 1202 923 1202 923C1202 923 1142.29 964.022 1103.05 1017.51C1099.03 1022.99 1092 1020.72 1093.74 1014.15C1107.8 961.112 1170.29 865.301 1201.5 828.5C1230.33 794.5 1257.5 740 1257.5 740C1257.5 740 1232.93 782.193 1193.5 826C1162.95 864.348 1143.5 886 1107 954C1076.34 1011.12 1083.79 1053.42 1063.5 1115C1058.32 1130.72 1052.39 1138.7 1049.5 1155C1044.15 1185.24 1059.5 1233 1059.5 1233ZM1419.5 782C1424.9 810.371 1428.38 826.424 1419.8 852.117C1418.67 855.472 1421.91 858.634 1425.09 857.08C1441.77 848.918 1476.38 829.019 1470 807C1466.21 793.913 1424.5 792.5 1419.5 782ZM1243 496.011C1235.12 496.796 1229.62 496.339 1208 485.727C1202.5 481.142 1188.5 465 1188.5 465C1203.41 478.308 1211.86 484.975 1228 487.472C1232.64 490.378 1237.62 493.228 1243 496.011ZM1362 646C1346 644 1321.81 638.552 1306.5 633.5C1302.87 631.742 1282.93 605.266 1283.5 603C1305.45 626.197 1321.63 636.357 1362 646Z" stroke="#705041" stroke-width="3" stroke-linecap="round" stroke-linejoin="round"/>
<mask id="mask3_376_25" style="mask-type:alpha" maskUnits="userSpaceOnUse" x="645" y="219" width="828" height="1507">
<path fill-rule="evenodd" clip-rule="evenodd" d="M864 680C855.19 704.153 852.379 722.896 850.044 738.468C844.692 774.15 841.838 793.18 775.015 822.5C775.015 822.5 826.766 792.384 821.5 771.5C815.511 747.746 823.678 737.418 831.609 727.39C837.367 720.11 843 712.988 843 701C843 653.624 860.107 622.735 875.326 595.254C887.442 573.375 898.362 553.657 898.5 529.5C898.576 516.204 897.276 505.911 896.025 496.011C895.591 492.572 895.162 489.181 894.8 485.727C893.241 488.352 891.464 490.84 889.5 493C879.686 503.796 871.902 505.369 866.422 506.476C865.557 506.651 864.75 506.814 864 507C854.942 509.249 845 521.5 845 521.5C845 521.5 843.912 494.316 853 481C861.916 467.936 873.634 465.392 885.689 462.774C888.451 462.175 891.231 461.571 893.999 460.836C894.111 458.643 894.275 456.369 894.5 454C895.978 438.437 900.892 423.185 905.19 409.845C909.703 395.838 913.537 383.939 912 376C911.039 371.036 907.59 368.574 904.06 366.054C900.822 363.743 897.516 361.384 896 357C894.676 353.17 894.982 351.337 895.286 349.521C895.593 347.681 895.896 345.86 894.5 342C890.341 330.5 860 302.137 860 302.137C860.04 295.192 859.803 288.479 859.333 282C857.633 258.591 852.874 238.231 847 221C872.449 240.086 892.856 259.437 911.933 282C915.154 285.81 918.337 289.711 921.5 293.718C926.483 300.031 931.417 306.607 936.37 313.5C943.31 323.158 950.29 333.441 957.5 344.5C1052.63 490.404 1036.35 586.351 1011.84 730.824C997.774 813.711 981 912.57 981 1046C955.625 990.636 950.684 890.89 947.73 799.5C947.475 791.625 947.235 783.812 946.998 776.094C944.025 679.256 941.515 597.5 916.144 597.5C911.686 605.828 906.173 612.196 900.083 619.232C889.012 632.022 876.032 647.018 864 680ZM733 774C734.93 777.86 731.944 785 731.944 785C724.22 773.215 717.454 759.702 713.546 746C716.168 753.443 719.988 757.542 723.894 761.733C727.073 765.144 730.308 768.616 733 774ZM721.084 519C720.2 514.271 719.022 510.224 717.5 507C713.074 497.628 710.806 486.1 710.214 473.5C715 475.5 730 514 727.5 519C726.5 521 721.084 519 721.084 519ZM767 771.5C777.697 746.968 784.83 734.443 797.84 716.462C798.437 715.638 799.697 716.123 799.561 717.132C798.922 721.874 797.582 730.087 795.5 734.5C789.844 746.491 789.102 753.364 788.502 758.916C787.777 765.634 787.26 770.419 778.5 780C773.827 785.111 767 771.5 767 771.5Z" fill="#705041"/>
<path d="M748.001 344.5C759.992 332.508 770.353 327.312 779.457 322.747C787.813 318.556 795.11 314.897 801.637 307C804.382 301.602 807.794 296.156 812.5 290C795.5 308.5 769 314.74 748.001 344.5Z" fill="#705041"/>
<path d="M788 344.5C809.764 315.875 818.066 304.425 838.5 302.137C838.5 302.137 829.246 297.94 820 302.137C812.347 305.612 809.086 306.762 802.5 317.5C797.469 325.704 788 344.5 788 344.5Z" fill="#705041"/>
<path d="M852.051 297.5C849.551 293 842 298 838.5 302.137C846.794 300.718 851.336 300.837 858.058 301.835C856.243 301.385 853.589 300.268 852.051 297.5Z" fill="#705041"/>
<path d="M791.25 334.474C790.252 337.591 789.188 340.913 788 344.5C788 344.5 797.469 325.704 802.5 317.5C801.287 319.5 794.04 327.939 796 321C793.727 326.514 794.036 325.788 791.886 332.49C791.677 333.142 791.465 333.803 791.25 334.474Z" fill="#705041"/>
<path d="M748.001 344.5C748.001 344.5 754.499 330.663 766.5 316C756.756 305.389 751.745 300.897 742.5 293.5C752.481 322.545 751.271 330.06 748.001 344.5Z" fill="#705041"/>
<path d="M1237.5 1281.5C1290.04 1198.88 1326 1052.5 1326 1052.5C1357.5 1188 1323.5 1260.5 1445.5 1292L1440.5 1309.5C1315.46 1370.93 1209 1415 1171.72 1392.5C1192.49 1354.87 1215.16 1316.62 1237.5 1281.5Z" fill="#705041"/>
<path d="M1049.5 1248C1043.62 1289.19 1035.02 1297.21 1009.15 1281.5C1027.35 1300.49 1035.86 1314.31 1039.22 1328.5C1041.97 1340.09 1041.27 1351.92 1039.61 1367C1043.96 1331.62 1047.75 1293.46 1049.5 1248Z" fill="#705041"/>
<path d="M1086 1645C1092.5 1625.5 1084.36 1623 1086 1594C1086.12 1591.83 1086.38 1589.5 1086.75 1587C1070 1594 1035.5 1665.5 1018.5 1665.5C1001.5 1665.5 1012.86 1622.5 1012.86 1622.5C1007.91 1632.78 1001.5 1641.46 1001.5 1655.5C1001.5 1662.78 1001.14 1670.13 1000.49 1677.5C1000.49 1677.5 1001.5 1723.83 1010.5 1723.5C1037.5 1722.5 1075.5 1644 1086 1645Z" fill="#705041"/>
<path d="M1059.5 1233C1050.22 1137.89 1089.15 1137.49 1086.83 1107.17C1086.44 1102.09 1086.07 1096.87 1087.77 1092.06C1101.71 1052.51 1139.2 1032.37 1136 1022C1125.82 989 1202 923 1202 923C1202 923 1142.29 964.022 1103.05 1017.51C1099.03 1022.99 1092 1020.72 1093.74 1014.15C1107.8 961.112 1170.29 865.301 1201.5 828.5C1230.33 794.5 1257.5 740 1257.5 740C1257.5 740 1232.93 782.193 1193.5 826C1162.95 864.349 1143.5 886 1107 954C1076.34 1011.12 1083.79 1053.42 1063.5 1115C1058.32 1130.72 1052.39 1138.7 1049.5 1155C1044.15 1185.24 1059.5 1233 1059.5 1233Z" fill="#705041"/>
<path d="M1419.5 782C1424.9 810.371 1428.38 826.424 1419.8 852.117C1418.67 855.472 1421.91 858.634 1425.09 857.08C1441.77 848.918 1476.38 829.019 1470 807C1466.21 793.913 1424.5 792.5 1419.5 782Z" fill="#705041"/>
<path d="M936.37 313.5C970.049 313.5 1102.92 343.686 1283.23 653.883C1287.86 661.858 1295.49 667.823 1303.99 671.407C1318.26 677.423 1333.03 686.061 1348.5 695.922C1240.5 595.5 1267 565.5 1188.5 497.5C1195.49 501.712 1199.02 502.177 1205 501.5C1176 488 1170 474.5 1142 441.5C1122.49 418.502 1115.05 401.297 1092.5 381.5C1064.39 356.825 1011.5 333.5 1011.5 333.5C1021.5 334.5 1026.5 333.5 1032.5 330.5C1003 331.5 997.518 322.205 977.5 317C954.578 311.04 921.5 293.718 921.5 293.718C926.483 300.031 931.417 306.607 936.37 313.5Z" fill="#705041"/>
<path d="M1306.5 633.5C1321.81 638.552 1346 644 1362 646C1321.63 636.357 1305.45 626.197 1283.5 603C1282.93 605.266 1302.87 631.742 1306.5 633.5Z" fill="#705041"/>
<path d="M1208 485.727C1229.62 496.339 1235.12 496.796 1243 496.011C1237.62 493.228 1232.64 490.379 1228 487.472C1211.86 484.975 1203.41 478.308 1188.5 465C1188.5 465 1202.5 481.142 1208 485.727Z" fill="#705041"/>
<path d="M1009.15 1281.5C973.349 1244.14 919.202 1207.03 907.5 1127.5C890.5 1320.5 676 1155 646.565 1197.5L652 1221C663.786 1206 762.864 1278.34 1001.81 1303.66C1010.32 1304.57 1018.49 1308 1024.71 1313.88C1032.26 1321.02 1039.22 1328.5 1039.22 1328.5C1035.86 1314.31 1027.35 1300.49 1009.15 1281.5Z" fill="#705041"/>
<path d="M927.515 534C927.515 566.658 923.118 584.476 916.144 597.5M748.001 344.5C759.992 332.508 770.353 327.312 779.457 322.747C787.813 318.556 795.11 314.897 801.637 307M748.001 344.5C769 314.74 795.5 308.5 812.5 290M748.001 344.5C748.001 344.5 754.499 330.663 766.5 316C756.756 305.389 751.745 300.897 742.5 293.5C752.481 322.545 751.272 330.06 748.001 344.5ZM916.144 597.5C911.686 605.828 906.173 612.196 900.083 619.232C889.012 632.022 876.032 647.018 864 680C855.19 704.153 852.379 722.896 850.044 738.468C844.692 774.15 841.838 793.18 775.015 822.5C775.015 822.5 826.766 792.384 821.5 771.5C815.511 747.746 823.678 737.418 831.609 727.39C837.367 720.11 843 712.988 843 701C843 653.624 860.107 622.735 875.326 595.254C887.442 573.375 898.362 553.657 898.5 529.5C898.576 516.204 897.276 505.911 896.025 496.011C895.591 492.572 895.162 489.181 894.8 485.727M916.144 597.5C941.515 597.5 944.025 679.256 946.998 776.094C947.235 783.812 947.475 791.625 947.73 799.5C950.684 890.89 955.625 990.636 981 1046C981 912.57 997.774 813.711 1011.84 730.824C1036.35 586.351 1052.63 490.404 957.5 344.5C950.29 333.441 943.31 323.158 936.37 313.5M788 344.5C809.764 315.875 818.066 304.425 838.5 302.137M788 344.5C789.188 340.913 790.252 337.591 791.25 334.474C791.465 333.803 791.677 333.142 791.886 332.49C794.036 325.788 793.727 326.514 796 321M788 344.5C788 344.5 797.469 325.704 802.5 317.5M838.5 302.137C842 298 849.551 293 852.051 297.5C853.589 300.268 856.243 301.385 858.058 301.835M838.5 302.137C838.5 302.137 829.246 297.94 820 302.137C812.347 305.612 809.086 306.762 802.5 317.5M838.5 302.137C846.794 300.718 851.336 300.837 858.058 301.835M860 302.137C860.181 270.102 854.5 243 847 221M860 302.137C860 302.137 890.341 330.5 894.5 342C895.896 345.86 895.593 347.681 895.286 349.521C894.982 351.337 894.676 353.17 896 357C897.516 361.384 900.822 363.743 904.06 366.054C907.59 368.574 911.039 371.036 912 376C913.537 383.939 909.703 395.838 905.19 409.845C900.892 423.185 895.978 438.437 894.5 454C894.275 456.369 894.111 458.643 893.999 460.836M860 302.137C860.04 295.192 859.803 288.479 859.333 282C857.633 258.591 852.874 238.231 847 221M860 302.137C860 302.137 859.193 302.117 858.058 301.835M860 302.137C859.331 302.029 858.685 301.928 858.058 301.835M847 221C872.449 240.086 892.856 259.437 911.933 282C915.154 285.81 918.337 289.711 921.5 293.718M801.637 307C804.382 301.602 807.794 296.156 812.5 290M801.637 307C801.422 307.422 801.211 307.844 801.005 308.266M812.5 290C807.426 296.638 803.857 302.449 801.005 308.266M893.999 460.836C891.231 461.571 888.451 462.175 885.689 462.774C873.634 465.392 861.916 467.936 853 481C843.912 494.316 845 521.5 845 521.5C845 521.5 854.942 509.249 864 507C864.75 506.814 865.557 506.651 866.422 506.476C871.902 505.369 879.686 503.796 889.5 493C891.464 490.84 893.241 488.352 894.8 485.727M893.999 460.836C893.521 470.213 894.001 478.12 894.8 485.727M893.999 460.836C895.505 460.436 897.007 459.998 898.5 459.5C904.705 457.432 902.262 473.156 894.8 485.727M801.005 308.266C799.992 310.331 796.867 318.897 796 321M802.5 317.5C801.287 319.5 794.04 327.939 796 321M936.37 313.5C970.049 313.5 1102.92 343.686 1283.23 653.883C1287.86 661.858 1295.49 667.823 1303.99 671.407C1318.26 677.423 1333.03 686.061 1348.5 695.922M936.37 313.5C931.417 306.607 926.483 300.031 921.5 293.718M1009.15 1281.5C973.349 1244.14 919.202 1207.03 907.5 1127.5C890.5 1320.5 676 1155 646.565 1197.5L652 1221C663.786 1206 762.864 1278.34 1001.81 1303.66C1010.32 1304.57 1018.49 1308 1024.71 1313.88C1032.26 1321.02 1039.22 1328.5 1039.22 1328.5M1009.15 1281.5C1035.02 1297.21 1043.62 1289.19 1049.5 1248C1047.75 1293.46 1043.96 1331.62 1039.61 1367C1041.27 1351.92 1041.97 1340.09 1039.22 1328.5M1009.15 1281.5C1027.35 1300.49 1035.86 1314.31 1039.22 1328.5M1393.5 725.392C1377.79 715.261 1362.84 705.066 1348.5 695.922M921.5 293.718C921.5 293.718 954.578 311.04 977.5 317C997.518 322.205 1003 331.5 1032.5 330.5C1026.5 333.5 1021.5 334.5 1011.5 333.5C1011.5 333.5 1064.39 356.825 1092.5 381.5C1115.05 401.297 1122.49 418.502 1142 441.5C1170 474.5 1176 488 1205 501.5C1199.02 502.177 1195.49 501.712 1188.5 497.5C1267 565.5 1240.5 595.5 1348.5 695.922M717.5 507C713.074 497.628 710.806 486.1 710.214 473.5C715 475.5 730 514 727.5 519C726.5 521 721.084 519 721.084 519C720.2 514.271 719.022 510.224 717.5 507ZM767 771.5C777.697 746.968 784.83 734.443 797.84 716.462C798.437 715.638 799.697 716.123 799.561 717.132C798.922 721.874 797.582 730.087 795.5 734.5C789.844 746.491 789.102 753.364 788.502 758.916C787.777 765.634 787.26 770.419 778.5 780C773.827 785.111 767 771.5 767 771.5ZM713.546 746C717.454 759.702 724.22 773.215 731.944 785C731.944 785 734.93 777.86 733 774C730.308 768.616 727.073 765.144 723.894 761.733C719.988 757.542 716.168 753.443 713.546 746ZM1001.5 1655.5C1001.5 1641.46 1007.91 1632.78 1012.86 1622.5C1012.86 1622.5 1001.5 1665.5 1018.5 1665.5C1035.5 1665.5 1070 1594 1086.75 1587C1086.38 1589.5 1086.12 1591.83 1086 1594C1084.36 1623 1092.5 1625.5 1086 1645C1075.5 1644 1037.5 1722.5 1010.5 1723.5C1001.5 1723.83 1000.49 1677.5 1000.49 1677.5C1001.14 1670.13 1001.5 1662.78 1001.5 1655.5ZM1237.5 1281.5C1290.04 1198.88 1326 1052.5 1326 1052.5C1357.5 1188 1323.5 1260.5 1445.5 1292L1440.5 1309.5C1315.46 1370.93 1209 1415 1171.72 1392.5C1192.49 1354.87 1215.16 1316.62 1237.5 1281.5ZM1059.5 1233C1050.22 1137.89 1089.15 1137.49 1086.83 1107.17C1086.44 1102.09 1086.07 1096.87 1087.77 1092.06C1101.71 1052.51 1139.2 1032.37 1136 1022C1125.82 989 1202 923 1202 923C1202 923 1142.29 964.022 1103.05 1017.51C1099.03 1022.99 1092 1020.72 1093.74 1014.15C1107.8 961.112 1170.29 865.301 1201.5 828.5C1230.33 794.5 1257.5 740 1257.5 740C1257.5 740 1232.93 782.193 1193.5 826C1162.95 864.348 1143.5 886 1107 954C1076.34 1011.12 1083.79 1053.42 1063.5 1115C1058.32 1130.72 1052.39 1138.7 1049.5 1155C1044.15 1185.24 1059.5 1233 1059.5 1233ZM1419.5 782C1424.9 810.371 1428.38 826.424 1419.8 852.117C1418.67 855.472 1421.91 858.634 1425.09 857.08C1441.77 848.918 1476.38 829.019 1470 807C1466.21 793.913 1424.5 792.5 1419.5 782ZM1243 496.011C1235.12 496.796 1229.62 496.339 1208 485.727C1202.5 481.142 1188.5 465 1188.5 465C1203.41 478.308 1211.86 484.975 1228 487.472C1232.64 490.378 1237.62 493.228 1243 496.011ZM1362 646C1346 644 1321.81 638.552 1306.5 633.5C1302.87 631.742 1282.93 605.266 1283.5 603C1305.45 626.197 1321.63 636.357 1362 646Z" stroke="#705041" stroke-width="3" stroke-linecap="round" stroke-linejoin="round"/>
</mask>
<g mask="url(#mask3_376_25)">
<path d="M1765.22 937C1802.27 878.396 1823 807.813 1823 722C1823 1081.77 1690.47 1270.92 1072 1361C639.747 1423.96 172.5 1461.92 38.095 1666.5C13.454 1704.01 0.000124196 1747.11 0.00012207 1797C0.000152695 1078.17 1454.9 1427.91 1765.22 937Z" fill="black" fill-opacity="0.2"/>
</g>
<path fill-rule="evenodd" clip-rule="evenodd" d="M880.583 1979.51C863.807 1988.93 847.181 1998.27 831.882 1970C808.882 1927.5 868.382 1907.49 875.382 1951C875.382 1951 891.876 1916.9 859.382 1898C759.848 1840.11 488.993 1667.85 416.882 1501.5C348.485 1343.71 309.565 1025.13 285.444 759.404C262.343 504.926 263.642 298.915 218.882 329C218.882 329 236.882 350.786 211.882 361.5C186.882 372.214 175.44 336.21 192.882 311C225.592 263.722 383.419 208.587 518.083 161.543C628.377 123.013 723.133 89.9108 720.882 71C718.621 52.0093 702.882 54.5 689.882 57.5C658.272 64.7946 609.382 78 609.382 78C612.882 100.5 579.382 119 573.882 75C568.382 31 772.961 -5.25223e-06 905.882 0C1038.8 5.25223e-06 1243.38 31 1237.88 75C1232.38 119 1198.88 100.5 1202.38 78C1202.38 78 1153.49 64.7946 1121.88 57.5C1108.88 54.5 1093.14 52.0093 1090.88 71C1088.63 89.9108 1183.39 123.013 1293.68 161.543C1428.34 208.587 1586.17 263.722 1618.88 311C1636.32 336.21 1624.88 372.214 1599.88 361.5C1574.88 350.786 1592.88 329 1592.88 329C1548.12 298.915 1549.42 504.926 1526.32 759.404C1502.2 1025.13 1463.28 1343.71 1394.88 1501.5C1322.77 1667.85 1051.92 1840.11 952.382 1898C919.888 1916.9 936.382 1951 936.382 1951C943.382 1907.49 1002.88 1927.5 979.882 1970C964.583 1998.27 947.956 1988.93 931.18 1979.51C922.735 1974.76 914.252 1970 905.882 1970C897.511 1970 889.028 1974.76 880.583 1979.51ZM441.882 1501.5C493.882 1612 734.882 1852 905.882 1852C1076.88 1852 1317.88 1612 1369.88 1501.5C1480.5 1265 1520.88 574.5 1514.38 377C1507.88 179.5 1084.88 143.5 905.882 143.5C726.882 143.5 303.882 179.5 297.382 377C290.882 574.5 329.705 1263.12 441.882 1501.5Z" fill="#A3A9A8"/>
<mask id="mask4_376_25" style="mask-type:alpha" maskUnits="userSpaceOnUse" x="184" y="0" width="1444" height="1989">
<path fill-rule="evenodd" clip-rule="evenodd" d="M880.583 1979.51C863.807 1988.93 847.181 1998.27 831.882 1970C808.882 1927.5 868.382 1907.49 875.382 1951C875.382 1951 891.876 1916.9 859.382 1898C759.848 1840.11 488.993 1667.85 416.882 1501.5C348.485 1343.71 309.565 1025.13 285.444 759.404C262.343 504.926 263.642 298.915 218.882 329C218.882 329 236.882 350.786 211.882 361.5C186.882 372.214 175.44 336.21 192.882 311C225.592 263.722 383.419 208.587 518.083 161.543C628.377 123.013 723.133 89.9108 720.882 71C718.621 52.0093 702.882 54.5 689.882 57.5C658.272 64.7946 609.382 78 609.382 78C612.882 100.5 579.382 119 573.882 75C568.382 31 772.961 -5.25223e-06 905.882 0C1038.8 5.25223e-06 1243.38 31 1237.88 75C1232.38 119 1198.88 100.5 1202.38 78C1202.38 78 1153.49 64.7946 1121.88 57.5C1108.88 54.5 1093.14 52.0093 1090.88 71C1088.63 89.9108 1183.39 123.013 1293.68 161.543C1428.34 208.587 1586.17 263.722 1618.88 311C1636.32 336.21 1624.88 372.214 1599.88 361.5C1574.88 350.786 1592.88 329 1592.88 329C1548.12 298.915 1549.42 504.926 1526.32 759.404C1502.2 1025.13 1463.28 1343.71 1394.88 1501.5C1322.77 1667.85 1051.92 1840.11 952.382 1898C919.888 1916.9 936.382 1951 936.382 1951C943.382 1907.49 1002.88 1927.5 979.882 1970C964.583 1998.27 947.956 1988.93 931.18 1979.51C922.735 1974.76 914.252 1970 905.882 1970C897.511 1970 889.028 1974.76 880.583 1979.51ZM441.882 1501.5C493.882 1612 734.882 1852 905.882 1852C1076.88 1852 1317.88 1612 1369.88 1501.5C1480.5 1265 1520.88 574.5 1514.38 377C1507.88 179.5 1084.88 143.5 905.882 143.5C726.882 143.5 303.882 179.5 297.382 377C290.882 574.5 329.705 1263.12 441.882 1501.5Z" fill="#A3A9A8"/>
</mask>
<g mask="url(#mask4_376_25)">
<path d="M1765.22 937C1802.27 878.396 1823 807.813 1823 722C1823 1081.77 1690.47 1270.92 1072 1361C639.747 1423.96 172.5 1461.92 38.095 1666.5C13.454 1704.01 0.000124196 1747.11 0.00012207 1797C0.000152695 1078.17 1454.9 1427.91 1765.22 937Z" fill="black" fill-opacity="0.2"/>
</g>
<path d="M1765.22 957C1802.27 898.396 1823 827.813 1823 742C1823 1101.77 1690.47 1290.92 1072 1381C639.747 1443.96 172.5 1481.92 38.095 1686.5C13.454 1724.01 0.000124196 1767.11 0.00012207 1817C0.000152695 1098.17 1454.9 1447.91 1765.22 957Z" fill="#F4D9BD"/>
<mask id="mask5_376_25" style="mask-type:alpha" maskUnits="userSpaceOnUse" x="0" y="742" width="1824" height="1076">
<path d="M1765.22 957C1802.27 898.396 1823 827.813 1823 742C1823 1101.77 1690.47 1290.92 1072 1381C639.747 1443.96 172.5 1481.92 38.095 1686.5C13.454 1724.01 0.000124196 1767.11 0.00012207 1817C0.000152695 1098.17 1454.9 1447.91 1765.22 957Z" fill="#F4D9BD"/>
</mask>
<g mask="url(#mask5_376_25)">
<path d="M700.705 1470.5C700.705 1470.5 696.545 1434.4 692.705 1429C688.864 1423.6 684.922 1422.11 680.705 1417C673.28 1408 705.205 1306.5 700.705 1286C698.325 1275.16 683.805 1277.86 678.705 1268C671.205 1253.5 684.705 1186.5 710.205 1166.5C710.205 1166.5 683.705 1188 660.705 1243C655.362 1255.78 684.205 1282.5 672.705 1337.5C672.705 1337.5 659.664 1382.2 665.705 1410C671.648 1437.35 699.118 1490 697.205 1513.5L700.705 1470.5Z" fill="#958866" fill-opacity="0.5"/>
<path d="M799.705 1634C824.205 1608 806.205 1490.5 784.705 1476.5C767.005 1467.94 755.657 1463.01 743.205 1458.73C743.781 1528.79 735.44 1554.06 705.205 1573.89C747.937 1608.25 799.705 1634 799.705 1634Z" fill="#958866" fill-opacity="0.5"/>
<path d="M920.705 1108C855.745 1166.69 729.205 1108 699.205 1118.5C667.943 1129.44 644.842 1158.95 642.705 1192C636.204 1292.5 620.906 1437.73 627.705 1449C634.504 1460.27 640.863 1464.96 647.205 1476.5C659.349 1498.59 644.862 1496.98 656.205 1519.5C665.701 1538.35 684.38 1557.14 705.205 1573.89C735.44 1554.06 743.781 1528.79 743.205 1458.73C742.242 1458.4 741.272 1458.07 740.293 1457.75C732.955 1455.32 725.216 1458.11 718.797 1462.42C713.832 1465.74 708.365 1467.85 700.705 1470.5L697.205 1513.5C699.118 1490 671.648 1437.35 665.705 1410C659.664 1382.2 672.705 1337.5 672.705 1337.5C684.205 1282.5 655.362 1255.78 660.705 1243C683.705 1188 710.205 1166.5 710.205 1166.5C722.205 1157.5 733.705 1144.5 893.205 1178L920.705 1108Z" fill="#958866" fill-opacity="0.5"/>
</g>
<path d="M636.5 1499.5C636.5 1499.5 632.341 1463.4 628.5 1458C624.66 1452.6 620.718 1451.11 616.5 1446C609.076 1437 641 1335.5 636.5 1315C634.12 1304.16 619.6 1306.86 614.5 1297C607 1282.5 620.5 1215.5 646 1195.5C646 1195.5 619.5 1217 596.5 1272C591.158 1284.78 620 1311.5 608.5 1366.5C608.5 1366.5 595.46 1411.2 601.5 1439C607.443 1466.35 634.913 1519 633 1542.5L636.5 1499.5Z" fill="#DEB48B"/>
<path d="M735.5 1663C760 1637 742 1519.5 720.5 1505.5C702.8 1496.94 691.453 1492.01 679 1487.73C679.576 1557.79 671.235 1583.06 641 1602.89C683.733 1637.25 735.5 1663 735.5 1663Z" fill="#DEB48B"/>
<path d="M856.5 1137C791.541 1195.69 665 1137 635 1147.5C603.739 1158.44 580.638 1187.95 578.5 1221C572 1321.5 556.701 1466.73 563.5 1478C570.299 1489.27 576.659 1493.96 583 1505.5C595.145 1527.59 580.657 1525.98 592 1548.5C601.496 1567.35 620.175 1586.14 641 1602.89C671.235 1583.06 679.576 1557.79 679 1487.73C678.037 1487.4 677.068 1487.07 676.088 1486.75C668.751 1484.32 661.011 1487.11 654.593 1491.42C649.628 1494.74 644.161 1496.85 636.5 1499.5L633 1542.5C634.913 1519 607.443 1466.35 601.5 1439C595.46 1411.2 608.5 1366.5 608.5 1366.5C620 1311.5 591.158 1284.78 596.5 1272C619.5 1217 646 1195.5 646 1195.5C658 1186.5 669.5 1173.5 829 1207L856.5 1137Z" fill="#DEB48B"/>
<path d="M636.5 1499.5C636.5 1499.5 632.341 1463.4 628.5 1458C624.66 1452.6 620.718 1451.11 616.5 1446C609.076 1437 641 1335.5 636.5 1315C634.12 1304.16 619.6 1306.86 614.5 1297C607.592 1283.64 618.499 1225.75 640.189 1201.07C642.048 1198.95 643.987 1197.08 646 1195.5C646 1195.5 643.828 1197.26 640.189 1201.07C631.115 1210.55 612.916 1232.74 596.5 1272C591.158 1284.78 620 1311.5 608.5 1366.5C608.5 1366.5 595.46 1411.2 601.5 1439C607.443 1466.35 634.913 1519 633 1542.5L636.5 1499.5Z" fill="#ECC3A5"/>
<path d="M735.5 1663C760 1637 742 1519.5 720.5 1505.5C702.8 1496.94 691.453 1492.01 679 1487.73C679.576 1557.79 671.235 1583.06 641 1602.89C683.732 1637.25 735.5 1663 735.5 1663Z" fill="#ECC3A5"/>
<path fill-rule="evenodd" clip-rule="evenodd" d="M640.189 1201.07C642.048 1198.95 643.987 1197.08 646 1195.5C646 1195.5 643.828 1197.26 640.189 1201.07Z" fill="#ECC3A5"/>
<path d="M585.894 1511.46C592.509 1527.51 581.79 1528.23 592 1548.5C598.559 1561.52 609.498 1574.51 622.5 1586.82C590.142 1544.5 602.598 1552 585.894 1511.46Z" fill="#ECC3A5"/>
<path d="M635 1147.5C603.739 1158.44 580.638 1187.95 578.5 1221C572 1321.5 556.701 1466.73 563.5 1478C567.418 1484.5 571.19 1488.81 574.897 1493.5C572 1484 566.5 1483.58 566.5 1476C566.5 1376.55 576.5 1212.5 605 1182.5C635.34 1150.56 698.5 1154.54 673 1149.66C665.547 1148.31 658.774 1147.22 652.886 1146.65C645.316 1145.92 639.208 1146.03 635 1147.5Z" fill="#ECC3A5"/>
<path d="M636.468 1499.89C636.49 1499.63 636.486 1499.37 636.455 1499.11C635.996 1495.22 632.107 1463.07 628.5 1458C624.66 1452.6 620.718 1451.11 616.5 1446C609.076 1437 641 1335.5 636.5 1315C634.12 1304.16 619.6 1306.86 614.5 1297C607 1282.5 631.557 1247.03 652 1221L646.5 1197C646.5 1197 619.5 1217 596.5 1272C591.158 1284.78 620 1311.5 608.5 1366.5C608.5 1366.5 595.46 1411.2 601.5 1439C607.443 1466.35 634.913 1519 633 1542.5L636.468 1499.89Z" fill="#705041"/>
<path d="M735.5 1663C760 1637 742 1519.5 720.5 1505.5C702.8 1496.94 691.453 1492.01 679 1487.73C679.576 1557.79 671.235 1583.06 641 1602.89C683.733 1637.25 735.5 1663 735.5 1663Z" fill="#705041"/>
<path d="M652 1221C631.557 1247.03 607 1282.5 614.5 1297C619.6 1306.86 634.12 1304.16 636.5 1315C641 1335.5 609.076 1437 616.5 1446C620.718 1451.11 624.66 1452.6 628.5 1458C632.107 1463.07 635.996 1495.22 636.455 1499.11C636.486 1499.37 636.49 1499.63 636.468 1499.89L633 1542.5C634.913 1519 607.443 1466.35 601.5 1439C595.46 1411.2 608.5 1366.5 608.5 1366.5C620 1311.5 591.158 1284.78 596.5 1272C619.5 1217 646.5 1197 646.5 1197L652 1221ZM652 1221C660.537 1210.13 714.876 1245.09 835 1274.82M735.5 1663C760 1637 742 1519.5 720.5 1505.5C702.8 1496.94 691.453 1492.01 679 1487.73C679.576 1557.79 671.235 1583.06 641 1602.89C683.733 1637.25 735.5 1663 735.5 1663Z" stroke="#705041" stroke-width="3" stroke-linejoin="round"/>
</svg>
